<svg width="150" height="150" viewBox="0 0 150 150" fill="none" xmlns="http://www.w3.org/2000/svg">
<path d="M150 105C150 112.931 150 121.708 146.769 129.573C143.546 137.356 137.356 143.546 129.573 146.769C121.708 150 112.931 150 105 150H45C37.0693 150 28.2915 150 20.4268 146.769C12.6443 143.546 6.45447 137.356 3.23083 129.573C0 121.708 0 112.931 0 105V45C0 37.0693 0 28.2915 3.23083 20.4268C6.45447 12.6443 12.6443 6.45447 20.4268 3.23083C28.2915 0 37.0693 0 45 0H105C112.931 0 121.708 0 129.573 3.23083C137.356 6.45447 143.546 12.6443 146.769 20.4268C150 28.2915 150 37.0693 150 45V105Z" fill="url(#paint0_linear_40000044_10006)"/>
<path d="M67.5463 94.3333C67.5463 98.3293 69.1282 102.162 71.9448 104.987C74.7613 107.813 78.5816 109.4 82.5648 109.4C86.5479 109.4 90.3683 107.813 93.1848 104.987C95.2874 102.878 96.702 100.208 97.284 97.3267C97.6136 95.6957 98.9281 94.3333 100.587 94.3333H117.107C118.766 94.3333 120.124 95.6848 119.991 97.3437C119.281 106.232 115.445 114.617 109.114 120.968C102.073 128.032 92.5227 132 82.5648 132C72.6069 132 63.0568 128.032 56.0155 120.968C48.9742 113.904 45.0185 104.323 45.0185 94.3333V89.8133C45.0185 88.1491 43.6737 86.8 42.0148 86.8H33.0037C31.3448 86.8 30 85.4509 30 83.7867V67.2133C30 65.5491 31.3448 64.2 33.0037 64.2H42.0148C43.6737 64.2 45.0185 62.8509 45.0185 61.1867V52.1467C45.0185 50.4824 43.6737 49.1333 42.0148 49.1333H33.0037C31.3448 49.1333 30 47.7842 30 46.12V29.5467C30 27.8824 31.3448 26.5333 33.0037 26.5333H42.0148C43.6737 26.5333 45.0185 25.1842 45.0185 23.52V22.0133C45.0185 20.3491 46.3633 19 48.0222 19H64.5426C66.2015 19 67.5463 20.3491 67.5463 22.0133V23.52C67.5463 25.1842 68.8911 26.5333 70.55 26.5333H79.5611C81.22 26.5333 82.5648 27.8824 82.5648 29.5467V46.12C82.5648 47.7842 81.22 49.1333 79.5611 49.1333H70.55C68.8911 49.1333 67.5463 50.4824 67.5463 52.1467V61.1867C67.5463 62.8509 68.8911 64.2 70.55 64.2H79.5611C81.22 64.2 82.5648 65.5491 82.5648 67.2133V83.7867C82.5648 85.4509 81.22 86.8 79.5611 86.8H70.55C68.8911 86.8 67.5463 88.1491 67.5463 89.8133V94.3333Z" fill="#F5F5F5"/>
<defs>
<linearGradient id="paint0_linear_40000044_10006" x1="119.512" y1="117.5" x2="24.5153" y2="-5.44276" gradientUnits="userSpaceOnUse">
<stop stop-color="#1A83DF"/>
<stop offset="1" stop-color="#4398E2"/>
</linearGradient>
</defs>
</svg>
