<svg width="371" height="200" viewBox="0 0 371 200" fill="none" xmlns="http://www.w3.org/2000/svg">
<path d="M361.703 186.048C372.073 181.575 370.43 164.866 368.311 157.071L313.662 131.145L268.163 121.74H244.27L246.049 143.6C246.472 148.344 249.404 160.477 257.741 171.051C268.163 184.269 293.581 189.861 298.157 190.115C302.732 190.369 348.739 191.64 361.703 186.048Z" fill="#233828"/>
<path d="M271.975 189.861C281.735 187.421 280.956 181.557 279.346 178.931C278.838 176.22 275.737 170.339 267.399 168.509C259.062 166.679 249.691 172.153 246.048 175.118C245.624 176.813 245.285 180.761 247.319 182.998C249.861 185.794 259.774 192.911 271.975 189.861Z" fill="#FFB071"/>
<path d="M250.878 36.0802C251.488 42.1806 257.402 43.3668 260.283 43.1973L292.565 70.3948L309.595 77.2578C319.508 83.4429 339.792 93.7289 341.622 85.3917C343.91 74.9701 340.097 63.5318 324.338 52.0936C308.578 40.6553 316.204 38.1136 305.02 22.6084C293.836 7.10317 277.568 12.441 266.892 14.9829C256.216 17.5247 250.116 28.4546 250.878 36.0802Z" fill="#1E1E1E"/>
<path d="M274.771 74.2057C268.061 77.6626 246.388 104.284 236.39 117.163C237.322 118.942 241.219 121.586 249.353 117.926C259.52 113.35 271.975 118.434 271.975 117.926C272.738 117.417 273.246 116.655 273.501 116.909C273.755 117.163 274.009 118.688 274.771 118.942C275.534 119.197 278.33 119.451 286.21 122.501C281.38 127.33 279.347 139.785 280.872 141.311C282.397 142.836 289.768 147.411 297.648 148.682C305.528 149.953 310.103 144.107 311.628 143.852C313.153 143.598 325.354 149.699 334.505 156.307C343.655 162.916 370.345 161.9 370.345 159.358C370.345 156.816 362.719 129.364 358.906 116.909C355.094 104.454 344.164 82.5939 334.505 73.1891C326.777 65.6652 311.628 64.801 305.019 65.3094L295.869 81.323L288.243 89.711L288.752 82.0855L285.193 70.6472C284.515 70.393 281.482 70.7488 274.771 74.2057Z" fill="#FFDBBA"/>
<path d="M280.362 141.057C280.159 137.397 284.175 127.162 286.209 122.502C268.924 114.571 254.944 114.707 250.114 116.402C245.539 118.181 238.269 123.01 245.793 123.01C255.198 123.01 280.617 145.633 280.362 141.057Z" fill="#FFB071"/>
<path d="M259.011 44.7205C259.418 43.9071 258.164 35.5699 257.486 31.5029C258.757 34.299 278.837 45.7372 278.837 44.7205C278.837 43.7038 279.092 41.4161 280.617 38.8743C282.142 36.3324 286.463 36.8408 289.005 40.9077C291.547 44.9747 290.022 50.5667 285.955 52.6002C286.717 55.6504 292.818 63.7843 296.122 64.5468C299.426 65.3094 306.543 64.5468 306.289 65.0552C306.035 65.5636 301.968 80.0521 300.443 83.6106C298.918 87.1692 291.801 94.7947 285.955 94.5406C280.108 94.2864 283.921 77.5102 284.429 76.2393C284.938 74.9684 281.125 70.6473 280.871 70.1389C280.617 69.6305 279.6 66.8345 272.483 69.3763C265.366 71.9182 260.282 58.7006 259.265 57.1755C258.249 55.6504 256.978 57.9381 255.707 55.6504C254.436 53.3628 258.503 45.7372 259.011 44.7205Z" fill="#FFB071"/>
<path d="M184.353 106.762C183.272 106.402 181.179 103.486 179.95 101.589C179.697 101.197 179.212 101.023 178.771 101.176C170.179 104.161 154.473 110.183 154.868 112.354C155.376 115.15 162.747 122.776 165.035 124.301C166.833 125.5 180.071 127.452 186.8 128.323C187.029 128.353 187.256 128.301 187.452 128.179L196.915 122.264C197.169 122.105 197.339 121.841 197.377 121.544L199.193 107.471C199.274 106.843 198.76 106.298 198.128 106.343C193.36 106.682 185.471 107.135 184.353 106.762Z" fill="#FFB071"/>
<path d="M117.473 40.6998C112.77 43.3347 104.162 46.2885 100.148 47.4818C100.023 47.5189 99.9111 47.5781 99.8096 47.6593L99.2693 48.0916C98.9264 48.3659 98.8026 48.8318 98.964 49.2401L102.958 59.3433C102.995 59.4359 103.045 59.5225 103.107 59.6003L110.937 69.3868C111.073 69.5578 111.262 69.6791 111.475 69.7322L130.385 74.4596C130.968 74.6054 131.546 74.2097 131.619 73.6131C132.153 69.2355 133.007 62.1434 133.007 61.7706C133.007 61.2623 132.245 54.1451 133.007 54.6535C133.77 55.1619 138.599 58.4663 143.937 57.4495C149.275 56.4328 150.546 46.2654 152.071 45.2487C153.005 44.6263 154.692 44.2619 155.927 44.0871C156.466 44.0107 156.876 43.5429 156.838 42.9997C156.267 34.9216 154.338 26.0623 153.088 22.5319C152.946 22.1284 152.546 21.8853 152.118 21.8994C144.951 22.1351 141.028 18.5916 137.583 19.5761C134.843 20.3587 132.983 28.4203 132.318 32.8027C132.27 33.1175 132.081 33.3951 131.79 33.5243C130.605 34.0504 128.789 34.4747 128.432 33.0479C127.924 31.0144 124.619 23.1346 119.027 25.6765C113.752 28.658 114.271 35.5714 117.597 38.9478C118.102 39.4604 118.1 40.3481 117.473 40.6998Z" fill="#FFB071"/>
<path d="M101.996 18.3066C99.435 26.9747 103.983 40.3187 106.812 46.4589C106.973 46.8087 107.322 47.0296 107.707 47.0283C112.012 47.0136 119.535 46.8475 119.535 46.267C119.535 45.778 120.188 39.8114 120.709 35.1502C120.818 34.1817 122.107 33.9261 122.58 34.7779C123.895 37.1434 125.351 39.7407 125.635 40.1665C126.036 40.7671 133.203 35.8329 136.901 33.1734C137.016 33.0905 137.11 32.9857 137.181 32.8626L142.6 23.4375C142.795 23.0989 143.169 22.9037 143.559 22.9023C145.05 22.8968 148.454 22.6383 154.104 21.6111C162.492 20.086 166.305 8.6476 161.729 8.6476C157.154 8.6476 132.244 -0.248839 123.348 0.00534487C114.451 0.259529 105.3 7.1225 101.996 18.3066Z" fill="#1E1E1E"/>
<path d="M179.847 120.529L127.161 131.674L82.4644 142.974C82.1244 143.06 81.8543 143.317 81.7525 143.653L72.7639 173.291C72.6192 173.768 72.8437 174.277 73.2964 174.485C83.1226 179.007 103.4 187.621 111.91 188.611C122.84 189.882 127.161 182.256 133.008 181.748C138.854 181.24 142.158 187.34 144.7 187.34H160.5C160.643 187.34 160.781 187.309 160.911 187.25L194.633 171.899C194.727 171.857 194.813 171.8 194.889 171.731L207.698 160.154C207.887 159.983 208.003 159.747 208.024 159.493L210.713 126.491C210.755 125.972 210.393 125.508 209.879 125.423L180.217 120.52C180.095 120.5 179.969 120.503 179.847 120.529Z" fill="#233828"/>
<path d="M124.365 177.68C122.535 175.443 105.47 169.461 97.167 166.75C95.9656 166.354 92.9255 165.927 91.441 165.748C91.3608 165.738 91.2826 165.738 91.2025 165.748C88.4391 166.092 82.5957 166.75 80.3909 166.75C77.5949 166.75 79.12 184.797 80.3909 186.068C81.6618 187.339 97.167 192.423 109.368 191.66C121.569 190.898 126.652 180.476 124.365 177.68Z" fill="#FEFEFE"/>
<path d="M130.211 128.622C123.241 126.105 112.815 125.386 107.298 125.323C106.831 125.317 106.432 125.636 106.343 126.094C105.767 129.04 104.572 136.481 104.131 139.252C104.039 139.828 104.467 140.353 105.047 140.411C113.191 141.226 108.401 143.09 121.823 148.703C135.803 154.549 128.94 161.412 135.803 160.395C142.666 159.379 133.007 146.924 134.024 147.686C135.041 148.449 138.091 152.516 139.362 155.312C140.633 158.108 146.479 160.141 145.971 154.803C145.462 149.465 135.549 140.061 139.362 142.094C143.175 144.127 144.954 149.465 146.479 151.245C148.004 153.024 153.342 155.057 151.817 148.957C150.292 142.857 139.362 131.927 130.211 128.622Z" fill="#FFB071"/>
<path d="M67.6814 59.992C73.7612 55.0889 90.7331 49.4765 99.3048 47.0315C99.8171 46.8854 100.352 47.1614 100.57 47.6476C102.652 52.2938 111.785 67.7087 120.043 68.8884C128.73 70.1294 130.081 56.0979 133.689 53.0692C133.856 52.9294 134.067 52.8742 134.283 52.8944C143.004 53.7073 158.968 66.6358 161.729 69.3968C164.525 72.1928 182.064 100.661 181.302 101.678C180.539 102.695 157.154 117.692 153.596 115.912C150.037 114.133 145.97 104.22 144.191 106.253C142.803 107.839 138.083 122.273 135.727 129.828C135.616 130.182 135.716 130.563 135.966 130.837C137.062 132.032 137.749 133.261 133.769 130.909C129.48 128.375 115.19 126.417 107.746 125.662C107.225 125.609 106.758 125.971 106.67 126.488L104.419 139.769C104.34 140.235 103.946 140.582 103.473 140.601L91.734 141.07C91.6284 141.075 91.5242 141.095 91.4252 141.132L80.8244 145.077C80.7057 145.121 80.5848 145.142 80.4581 145.139C69.118 144.875 45.7992 143.602 41.7546 140.568C36.6709 136.756 31.0789 126.588 35.9084 113.879C40.7379 101.17 59.8017 66.3466 67.6814 59.992Z" fill="#FFDBBA"/>
<path d="M227.799 93.0775C234.408 90.5504 238.292 81.0081 239.583 75.9534C239.687 75.55 239.515 75.1325 239.168 74.9028L224.097 64.9366C224.023 64.8878 223.943 64.849 223.859 64.8212L197.456 56.1008C196.851 55.901 196.216 56.3103 196.148 56.9438L194.785 69.6614C194.765 69.8478 194.798 70.0361 194.88 70.2048L203.258 87.4529C203.348 87.6394 203.49 87.7911 203.673 87.8893C209.067 90.7926 221.003 95.6758 227.799 93.0775Z" fill="#1E1E1E"/>
<path d="M173.149 148.998C173.149 147.625 176.24 140.894 176.856 139.196C176.94 138.963 177.053 138.729 177.219 138.546L178.703 136.896C179.021 136.543 179.541 136.46 179.95 136.703C185.886 140.227 196.417 146.868 196.026 148.236C195.517 150.015 192.976 154.59 191.705 156.624C190.434 158.657 187.892 159.166 187.129 159.42C186.367 159.674 176.199 155.861 174.42 154.59C172.641 153.319 173.149 150.523 173.149 148.998Z" fill="#FFB071"/>
<path d="M201.819 92.8097L204.198 98.6477C204.332 98.9768 204.63 99.2101 204.982 99.2603L226.902 102.391C227.293 102.447 227.683 102.264 227.893 101.929C230.033 98.5241 229.353 99.4772 228.056 93.9664C227.915 93.3693 227.28 93.0261 226.685 93.1757C219.416 95.0038 210.908 88.4351 207.285 84.8654C206.701 84.2895 207.101 83.2647 207.84 82.9093C212.127 80.8493 215.337 73.1982 210.006 70.7104C202.381 67.1518 201.872 73.7606 200.347 74.2689C198.677 74.8255 198.052 68.4372 197.631 65.6205C197.584 65.3082 196.975 64.8785 196.694 64.7343C195.754 64.2511 190.908 65.0562 190.404 65.9859C188.21 70.0331 186.41 72.162 187.13 79.3528C187.913 87.1852 196.458 91.0895 201.1 92.2003C201.424 92.2778 201.693 92.5013 201.819 92.8097Z" fill="#FFB982"/>
<path d="M155.102 181.28C154.289 170.909 163.744 171.197 168.574 172.637C182.639 178.992 207.922 191.701 196.534 191.701C182.3 191.701 156.119 194.243 155.102 181.28Z" fill="#FEFEFE"/>
<path d="M175.945 137.305C175.945 134.267 184.518 116.017 188.856 107.164C188.892 107.091 188.936 107.025 188.988 106.963C193.032 102.194 197.317 99.674 200.347 97.9064C203.397 96.1271 215.344 91.5518 230.086 95.3645C244.829 99.1773 250.421 113.412 252.709 121.8C254.997 130.188 257.793 149.506 259.318 156.877C260.498 162.58 260.822 171.437 260.842 175.539C260.843 175.797 260.743 176.045 260.564 176.231L254.783 182.243C254.595 182.439 254.343 182.55 254.071 182.55H207.21C205.176 182.55 195.772 162.723 195.517 160.944C195.263 159.165 199.584 148.489 196.534 148.997C193.484 149.506 175.945 141.118 175.945 137.305Z" fill="#FFDBBA"/>
<path d="M164.506 150.776C169.736 150.173 187.167 156.483 195.499 159.818C195.681 159.89 195.823 160.002 195.936 160.161C202.462 169.311 227.976 191.314 259.747 175.014C260.445 174.656 261.308 175.174 261.3 175.958C261.2 185.273 262.646 196.13 223.985 197.8C182.808 199.579 157.135 169.84 155.61 166.281C154.085 162.723 157.898 151.539 164.506 150.776Z" fill="#233828"/>
<path d="M190.179 48.5961C192.193 48.5961 196.142 49.2826 198.394 49.7287C198.805 49.8101 199.219 49.6278 199.49 49.308C201.147 47.3503 205.171 44.9471 207.718 44.0208C210.514 43.0041 220.173 41.7332 231.611 48.5961C242.764 55.288 243.284 69.4712 239.769 76.0656C239.603 76.3755 239.288 76.5586 238.938 76.5285C231.36 75.876 187.052 63.9336 184.333 58.001C181.537 51.9005 187.383 48.5961 190.179 48.5961Z" fill="#F6BF47"/>
<path d="M4.84604 159.625C-5.52467 166.539 3.15076 181.057 8.65808 187.581C18.0121 195.715 30.8568 196.732 36.1099 196.223C41.363 193.173 51.7685 187.992 34.0773 185.552C11.9633 182.502 11.7091 155.049 4.84604 159.625Z" fill="#F6BF47"/>
<path d="M92.5391 197.5H74.7462H63.5621V184.028H44.2441V150.222H92.5391V197.5Z" fill="#CA8F13"/>
<path d="M104.881 199.28H90.885C90.8012 199.28 90.7183 199.271 90.6379 199.247C81.3099 196.536 81.0928 159.101 79.7794 155.353C79.6954 155.113 79.4539 155.127 79.2554 155.285C77.7622 156.477 77.1224 158.485 76.8909 160.331C76.7921 161.119 75.8837 161.632 75.163 161.3C70.0819 158.961 59.1508 156.682 51.5218 160.618C50.46 161.165 52.1919 163.401 53.3575 163.138C59.702 161.709 67.8826 162.265 71.6951 168.778C76.344 176.72 71.5209 185.6 68.1235 189.573C67.8611 189.88 67.5868 189.884 67.9901 189.863C68.7463 189.825 70.4753 189.931 73.9828 190.384C79.7292 191.125 80.4203 195.725 79.9841 198.523C79.9139 198.973 79.5119 199.28 79.0559 199.28H35.9104C35.7075 199.28 35.5064 199.216 35.3411 199.098C17.6948 186.542 32.0596 157.556 35.6009 149.714C38.4319 143.446 53.5622 124.761 60.8964 116.054C60.9799 115.955 61.0399 115.844 61.0798 115.721L63.7178 107.567C63.7812 107.371 63.7807 107.162 63.7317 106.962C63.07 104.253 63.4039 97.2556 69.6615 88.4559C77.7954 77.0176 80.8171 76.7653 91.013 76.7637C101.689 76.7619 108.806 87.9478 109.823 88.7103C110.636 89.3204 114.399 89.6421 116.432 89.7268C118.975 89.8328 125.965 87.9475 124.312 97.8607C121.753 113.206 104.231 112.095 103.722 112.604C103.214 113.112 99.6553 127.855 100.164 128.617C100.672 129.38 102.451 133.701 103.214 139.547C103.976 145.393 100.164 158.103 99.6553 159.882C99.1469 161.661 97.1134 189.367 98.1301 189.621C99.1469 189.876 101.943 189.876 105.247 193.18C107.682 195.615 106.566 197.949 105.514 199.031C105.349 199.2 105.118 199.28 104.881 199.28Z" fill="#F6BF47"/>
<path d="M60.7435 114.938L62.9048 108.258C63.108 107.63 63.8538 107.367 64.4132 107.718C77.7268 116.066 93.9024 119.228 101.528 119.886C102.147 119.94 102.577 120.526 102.435 121.13L100.851 127.864C100.746 128.306 100.357 128.624 99.9025 128.627C84.3514 128.739 68.0427 120.591 61.1356 116.067C60.7638 115.823 60.6067 115.361 60.7435 114.938Z" fill="#233828"/>
<path d="M119.883 97.6046C116.631 97.6046 116.594 93.0833 117.055 90.2823C117.123 89.8684 117.459 89.556 117.877 89.5225C119.751 89.3722 122.759 89.5 124.055 90.568C125.183 91.4976 125.051 94.8752 124.822 96.6512C124.803 96.8005 124.746 96.9439 124.614 97.0164C124.154 97.269 122.822 97.6046 119.883 97.6046Z" fill="#CA8F13"/>
<path d="M84.4057 113.618C83.3768 113.618 82.4536 113.462 81.6265 113.181C77.7254 111.854 83.4881 108.477 87.3814 107.128C87.9881 106.918 88.6067 106.628 89.2353 106.247C91.3919 104.94 92.826 102.692 93.7666 100.073C95.2199 96.0272 96.6684 95.8354 96.6702 100.135C96.6707 101.196 96.6495 102.006 96.6067 102.434C96.3525 104.976 94.0647 113.618 84.4057 113.618Z" fill="#CA8F13"/>
</svg>
