<svg width="519" height="143" viewBox="0 0 519 143" fill="none" xmlns="http://www.w3.org/2000/svg">
<path d="M518.026 5.59878H510.355V0H518.026V5.59878ZM517.762 31.8293H510.62V9.69867H517.762V31.8293Z" fill="#137FDE"/>
<path d="M503.922 31.8295H497.045C497.001 31.4769 496.868 28.7436 496.824 28.435C494.576 31.6973 491.225 32.6671 487.126 32.6671C481.042 32.6671 477.383 30.1102 477.383 25.4813C477.383 18.2514 487.434 17.9869 492.768 17.9869H496.648V17.2815C496.648 14.0633 494.796 12.9171 491.446 12.9171C488.007 12.9171 486.464 14.2397 486.332 16.0031H478.926C479.411 10.4043 485.627 8.86133 491.446 8.86133C498.764 8.86133 503.746 10.9774 503.746 17.8546V27.1125C503.746 27.6415 503.878 31.4328 503.922 31.8295ZM496.648 22.1309V21.8223H493.518C488.845 21.8223 484.965 22.6599 484.965 25.5254C484.965 27.2447 486.42 28.3909 489.374 28.3909C494.84 28.3909 496.648 25.3931 496.648 22.1309Z" fill="#137FDE"/>
<path d="M473.962 25.305C473.962 31.3887 467.04 32.6671 461.045 32.6671C451.611 32.6671 449.274 28.8758 449.01 25.0845H456.372C456.636 27.8178 458.797 28.6113 461.442 28.6113C464.175 28.6113 466.556 27.9941 466.556 25.834C466.556 24.0265 464.439 23.5857 462.456 23.233L456.372 22.0868C452.448 21.3373 449.803 19.5299 449.803 16.0912C449.803 10.4925 456.372 8.86133 461.53 8.86133C469.112 8.86133 473.212 11.3301 473.345 16.0031H466.115C465.85 13.887 464.307 12.9171 461.442 12.9171C459.282 12.9171 457.121 13.6666 457.121 15.3418C457.121 16.9729 459.017 17.502 461.309 17.8987L467.349 19.0008C472.331 19.9266 473.962 21.8664 473.962 25.305Z" fill="#137FDE"/>
<path d="M444.23 31.8293H437.353C437.353 31.5207 437.132 27.8617 437.132 27.8617C434.84 30.9476 431.886 32.6669 427.566 32.6669C419.498 32.6669 416.633 28.567 416.633 22.307V9.69873H423.775V21.3371C423.775 25.3929 425.362 28.038 429.682 28.038C433.605 28.038 436.912 25.2166 436.912 19.6619V9.69873H444.054V27.1122C444.054 28.6111 444.098 30.2423 444.23 31.8293Z" fill="#137FDE"/>
<path d="M411.593 20.7642C411.593 26.7598 407.626 32.6671 396.252 32.6671C384.657 32.6671 380.91 26.9802 380.91 20.7642C380.91 14.945 385.363 8.86133 396.252 8.86133C407.714 8.86133 411.593 14.5483 411.593 20.7642ZM404.011 20.7642C404.011 15.6945 401.057 13.1376 396.252 13.1376C391.711 13.1376 388.493 15.7826 388.493 20.7642C388.493 25.834 391.491 28.3909 396.252 28.3909C401.013 28.3909 404.011 25.4813 404.011 20.7642Z" fill="#137FDE"/>
<path d="M376.906 22.88C376.906 27.5971 373.688 31.8293 364.077 31.8293H346.135V0H363.328C372.233 0 375.583 3.35045 375.583 7.97936C375.583 11.9911 373.247 14.1953 368.883 15.2534C373.291 15.9587 376.906 18.1189 376.906 22.88ZM367.648 9.12556C367.648 6.43639 365.841 5.15793 361.388 5.15793H353.717V13.1373H361.917C365.841 13.1373 367.648 11.9029 367.648 9.12556ZM368.883 22.3951C368.883 19.1769 366.105 18.1189 362.755 18.1189H353.717V26.6713H362.843C366.811 26.6713 368.883 25.3047 368.883 22.3951Z" fill="#137FDE"/>
<path d="M322.399 5.59878H314.729V0H322.399V5.59878ZM322.135 31.8293H314.993V9.69867H322.135V31.8293Z" fill="#137FDE"/>
<path d="M308.274 31.8293H301.177V20.1909C301.177 16.0469 299.237 13.49 295.225 13.49C291.346 13.49 287.995 16.091 287.995 21.8661V31.8293H280.854V0H287.995V13.4459C290.288 10.3599 293.462 8.86106 297.385 8.86106C304.88 8.86106 308.274 12.9609 308.274 19.221V31.8293Z" fill="#137FDE"/>
<path d="M275.581 25.305C275.581 31.3887 268.66 32.6671 262.664 32.6671C253.23 32.6671 250.893 28.8758 250.629 25.0845H257.991C258.256 27.8178 260.416 28.6113 263.061 28.6113C265.794 28.6113 268.175 27.9941 268.175 25.834C268.175 24.0265 266.059 23.5857 264.075 23.233L257.991 22.0868C254.068 21.3373 251.422 19.5299 251.422 16.0912C251.422 10.4925 257.991 8.86133 263.149 8.86133C270.732 8.86133 274.831 11.3301 274.964 16.0031H267.734C267.469 13.887 265.926 12.9171 263.061 12.9171C260.901 12.9171 258.741 13.6666 258.741 15.3418C258.741 16.9729 260.636 17.502 262.929 17.8987L268.968 19.0008C273.95 19.9266 275.581 21.8664 275.581 25.305Z" fill="#137FDE"/>
<path d="M247.31 20.7642C247.31 26.7598 243.342 32.6671 231.968 32.6671C220.374 32.6671 216.627 26.9802 216.627 20.7642C216.627 14.945 221.08 8.86133 231.968 8.86133C243.431 8.86133 247.31 14.5483 247.31 20.7642ZM239.727 20.7642C239.727 15.6945 236.774 13.1376 231.968 13.1376C227.428 13.1376 224.21 15.7826 224.21 20.7642C224.21 25.834 227.207 28.3909 231.968 28.3909C236.73 28.3909 239.727 25.4813 239.727 20.7642Z" fill="#137FDE"/>
<path d="M210.736 31.8293H203.286V4.89342L191.559 31.8293H183.271L171.589 4.89342V31.8293H164.844V0H176.879L187.812 25.3929L198.701 0H210.736V31.8293Z" fill="#137FDE"/>
<path d="M157.554 5.59878H149.883V0H157.554V5.59878ZM157.289 31.8293H150.147V9.69867H157.289V31.8293Z" fill="#137FDE"/>
<path d="M143.429 31.8293H136.331V20.1909C136.331 16.0469 134.391 13.49 130.379 13.49C126.5 13.49 123.15 16.091 123.15 21.8661V31.8293H116.008V0H123.15V13.4459C125.442 10.3599 128.616 8.86106 132.54 8.86106C140.034 8.86106 143.429 12.9609 143.429 19.221V31.8293Z" fill="#137FDE"/>
<path d="M110.735 25.305C110.735 31.3887 103.814 32.6671 97.8184 32.6671C88.3842 32.6671 86.0477 28.8758 85.7832 25.0845H93.1454C93.4099 27.8178 95.57 28.6113 98.2151 28.6113C100.948 28.6113 103.329 27.9941 103.329 25.834C103.329 24.0265 101.213 23.5857 99.2291 23.233L93.1454 22.0868C89.2218 21.3373 86.5767 19.5299 86.5767 16.0912C86.5767 10.4925 93.1454 8.86133 98.3033 8.86133C105.886 8.86133 109.986 11.3301 110.118 16.0031H102.888C102.624 13.887 101.081 12.9171 98.2151 12.9171C96.055 12.9171 93.8948 13.6666 93.8948 15.3418C93.8948 16.9729 95.7905 17.502 98.0829 17.8987L104.122 19.0008C109.104 19.9266 110.735 21.8664 110.735 25.305Z" fill="#137FDE"/>
<path d="M82.4623 20.7642C82.4623 26.7598 78.4947 32.6671 67.1208 32.6671C55.5265 32.6671 51.7793 26.9802 51.7793 20.7642C51.7793 14.945 56.2319 8.86133 67.1208 8.86133C78.5829 8.86133 82.4623 14.5483 82.4623 20.7642ZM74.8797 20.7642C74.8797 15.6945 71.9261 13.1376 67.1208 13.1376C62.5801 13.1376 59.3619 15.7826 59.3619 20.7642C59.3619 25.834 62.3597 28.3909 67.1208 28.3909C71.882 28.3909 74.8797 25.4813 74.8797 20.7642Z" fill="#137FDE"/>
<path d="M45.8923 31.8297H38.442V4.89391L26.7154 31.8297H18.4275L6.74498 4.89391V31.8297H0V0.000488281H12.0352L22.9682 25.3934L33.8572 0.000488281H45.8923V31.8297Z" fill="#137FDE"/>
<path d="M194.012 109.658C194.012 113.158 195.402 116.515 197.878 118.99C200.353 121.465 203.71 122.856 207.21 122.856C210.711 122.856 214.068 121.465 216.543 118.99C218.391 117.143 219.634 114.803 220.145 112.28C220.435 110.851 221.59 109.658 223.048 109.658H237.566C239.024 109.658 240.217 110.841 240.1 112.295C239.476 120.08 236.105 127.426 230.542 132.989C224.354 139.177 215.961 142.653 207.21 142.653C198.459 142.653 190.067 139.177 183.879 132.989C177.691 126.801 174.215 118.408 174.215 109.658V105.698C174.215 104.24 173.033 103.058 171.575 103.058H163.657C162.199 103.058 161.017 101.877 161.017 100.419V85.9009C161.017 84.4431 162.199 83.2613 163.657 83.2613H171.575C173.033 83.2613 174.215 82.0795 174.215 80.6217V72.7028C174.215 71.245 173.033 70.0632 171.575 70.0632H163.657C162.199 70.0632 161.017 68.8814 161.017 67.4236V52.9057C161.017 51.4478 162.199 50.266 163.657 50.266H171.575C173.033 50.266 174.215 49.0842 174.215 47.6264V46.3066C174.215 44.8488 175.397 43.667 176.855 43.667H191.373C192.83 43.667 194.012 44.8488 194.012 46.3066V47.6264C194.012 49.0842 195.194 50.266 196.652 50.266H204.571C206.028 50.266 207.21 51.4478 207.21 52.9057V67.4236C207.21 68.8814 206.028 70.0632 204.571 70.0632H196.652C195.194 70.0632 194.012 71.245 194.012 72.7028V80.6217C194.012 82.0795 195.194 83.2613 196.652 83.2613H204.571C206.028 83.2613 207.21 84.4431 207.21 85.9009V100.419C207.21 101.877 206.028 103.058 204.571 103.058H196.652C195.194 103.058 194.012 104.24 194.012 105.698V109.658Z" fill="#137FDE"/>
<path d="M32.9953 109.658C32.9953 113.158 34.3855 116.515 36.8606 118.99C39.3357 121.465 42.693 122.856 46.1934 122.856C49.6937 122.856 53.051 121.465 55.5261 118.99C57.3739 117.143 58.617 114.803 59.1285 112.28C59.4181 110.851 60.5733 109.658 62.0311 109.658H76.549C78.0068 109.658 79.1996 110.841 79.0832 112.295C78.4593 120.08 75.0879 127.426 69.5246 132.989C63.3368 139.177 54.9443 142.653 46.1934 142.653C37.4425 142.653 29.0499 139.177 22.8621 132.989C16.6743 126.801 13.1981 118.408 13.1981 109.658V105.698C13.1981 104.24 12.0163 103.058 10.5585 103.058H2.63962C1.1818 103.058 0 101.877 0 100.419V85.9009C0 84.4431 1.1818 83.2613 2.63962 83.2613H10.5585C12.0163 83.2613 13.1981 82.0795 13.1981 80.6217V72.7028C13.1981 71.245 12.0163 70.0632 10.5585 70.0632H2.63962C1.1818 70.0632 0 68.8814 0 67.4236V52.9057C0 51.4478 1.1818 50.266 2.63962 50.266H10.5585C12.0163 50.266 13.1981 49.0842 13.1981 47.6264V46.3066C13.1981 44.8488 14.3799 43.667 15.8377 43.667H30.3556C31.8135 43.667 32.9953 44.8488 32.9953 46.3066V47.6264C32.9953 49.0842 34.1771 50.266 35.6349 50.266H43.5537C45.0116 50.266 46.1934 51.4478 46.1934 52.9057V67.4236C46.1934 68.8814 45.0116 70.0632 43.5537 70.0632H35.6349C34.1771 70.0632 32.9953 71.245 32.9953 72.7028V80.6217C32.9953 82.0795 34.1771 83.2613 35.6349 83.2613H43.5537C45.0116 83.2613 46.1934 84.4431 46.1934 85.9009V100.419C46.1934 101.877 45.0116 103.058 43.5537 103.058H35.6349C34.1771 103.058 32.9953 104.24 32.9953 105.698V109.658Z" fill="#137FDE"/>
<path d="M266.602 109.658C266.602 113.158 267.992 116.515 270.467 118.99C272.942 121.465 276.3 122.856 279.8 122.856C283.3 122.856 286.658 121.465 289.133 118.99C290.98 117.143 292.223 114.803 292.735 112.28C293.025 110.851 294.18 109.658 295.638 109.658H310.155C311.613 109.658 312.806 110.841 312.69 112.295C312.066 120.08 308.694 127.426 303.131 132.989C296.943 139.177 288.551 142.653 279.8 142.653C271.049 142.653 262.656 139.177 256.469 132.989C250.281 126.801 246.805 118.408 246.805 109.658V46.3066C246.805 44.8488 247.986 43.667 249.444 43.667H263.962C265.42 43.667 266.602 44.8488 266.602 46.3066V109.658Z" fill="#137FDE"/>
<path d="M105.585 109.658C105.585 113.158 106.975 116.515 109.45 118.99C111.925 121.465 115.283 122.856 118.783 122.856C122.283 122.856 125.641 121.465 128.116 118.99C129.963 117.143 131.207 114.803 131.718 112.28C132.008 110.851 133.163 109.658 134.621 109.658H149.139C150.596 109.658 151.789 110.841 151.673 112.295C151.049 120.08 147.677 127.426 142.114 132.989C135.926 139.177 127.534 142.653 118.783 142.653C110.032 142.653 101.64 139.177 95.4517 132.989C89.2639 126.801 85.7877 118.408 85.7877 109.658V46.3066C85.7877 44.8488 86.9695 43.667 88.4273 43.667H102.945C104.403 43.667 105.585 44.8488 105.585 46.3066V109.658Z" fill="#137FDE"/>
<path d="M458.585 85.5285C459.188 86.5733 458.435 87.8795 457.229 87.8806L438.606 87.8782C437.663 87.8781 436.791 87.375 436.32 86.5584L425.081 67.0923C424.61 66.2756 424.61 65.2694 425.081 64.4527L436.32 44.9868C436.791 44.1701 437.663 43.667 438.606 43.667L455.37 43.667C457.402 43.667 458.672 45.8667 457.656 47.6264L447.941 64.4527C447.47 65.2694 447.47 66.2756 447.941 67.0923L458.585 85.5285Z" fill="#137FDE"/>
<path d="M515.74 83.9186C516.756 85.6783 515.486 87.8781 513.454 87.8781L496.69 87.878C495.747 87.878 494.875 87.3749 494.404 86.5582L483.165 67.0923C482.694 66.2756 482.694 65.2693 483.165 64.4526L494.404 44.9868C494.875 44.1701 495.747 43.667 496.69 43.667L513.454 43.667C515.486 43.667 516.756 45.8667 515.74 47.6265L506.025 64.4527C505.554 65.2694 505.554 66.2757 506.025 67.0924L515.74 83.9186Z" fill="#137FDE"/>
<path d="M486.698 83.9186C487.714 85.6783 486.444 87.878 484.412 87.878H467.648C466.705 87.878 465.834 87.3749 465.362 86.5582L454.123 67.0923C453.652 66.2756 453.652 65.2694 454.123 64.4527L465.362 44.9868C465.834 44.1701 466.705 43.667 467.648 43.667H484.412C486.444 43.667 487.714 45.8667 486.698 47.6265L476.983 64.4528C476.512 65.2695 476.512 66.2757 476.983 67.0924L486.698 83.9186Z" fill="#137FDE"/>
<path d="M513.52 138.147L488.443 113.07C487.948 112.575 487.67 111.904 487.67 111.204V95.7995C487.67 94.3417 486.488 93.1599 485.03 93.1599H457.314C455.857 93.1599 454.675 94.3417 454.675 95.7995V111.204C454.675 111.904 454.397 112.576 453.902 113.071L428.825 138.147C427.162 139.81 428.34 142.653 430.692 142.653H455.89C456.59 142.653 457.261 142.375 457.756 141.88L469.306 130.329C470.337 129.299 472.008 129.299 473.039 130.329L484.589 141.88C485.084 142.375 485.756 142.653 486.456 142.653L511.653 142.653C514.005 142.653 515.182 139.81 513.52 138.147Z" fill="#137FDE"/>
<path fill-rule="evenodd" clip-rule="evenodd" d="M361.628 56.5176C361.628 56.7483 361.598 56.978 361.538 57.2008L355.119 81.1573C355.059 81.3801 355.029 81.6098 355.029 81.8405V84.6821C355.029 84.9128 355.059 85.1425 355.119 85.3653L361.538 109.322C361.598 109.545 361.628 109.774 361.628 110.005V126.815C361.628 128.273 360.446 129.455 358.988 129.455H344.471C343.013 129.455 341.831 130.636 341.831 132.094V140.013C341.831 141.471 340.649 142.653 339.191 142.653H324.673C323.216 142.653 322.034 141.471 322.034 140.013V46.3066C322.034 44.8488 323.216 43.667 324.673 43.667H358.988C360.446 43.667 361.628 44.8488 361.628 46.3066V56.5176ZM341.831 107.018C341.831 108.476 343.013 109.658 344.471 109.658H347.94C349.676 109.658 350.939 108.011 350.49 106.335L345.88 89.1314C345.821 88.9086 345.79 88.6789 345.79 88.4482V78.075C345.79 77.8443 345.821 77.6147 345.88 77.3919L350.49 60.1879C350.939 58.5114 349.676 56.8651 347.94 56.8651H344.471C343.013 56.8651 341.831 58.0469 341.831 59.5047V107.018Z" fill="#137FDE"/>
<path fill-rule="evenodd" clip-rule="evenodd" d="M415.74 54.2255C415.74 52.7677 414.559 51.5859 413.101 51.5859H401.882C400.425 51.5859 399.243 50.4041 399.243 48.9462V46.3066C399.243 44.8488 398.061 43.667 396.603 43.667H382.085C380.627 43.667 379.446 44.8488 379.446 46.3066V48.9462C379.446 50.4041 378.264 51.5859 376.806 51.5859H366.247C364.79 51.5859 363.608 52.7677 363.608 54.2255V58.8448C363.608 60.3026 364.79 61.4844 366.247 61.4844H366.907C368.365 61.4844 369.547 62.6662 369.547 64.1241V109.31C369.547 109.541 369.517 109.77 369.457 109.993L361.596 139.33C361.147 141.006 362.41 142.653 364.146 142.653H379.495C380.502 142.653 381.383 141.977 381.643 141.004C381.961 139.818 383.18 139.114 384.367 139.431L395.893 142.52C395.923 142.528 395.943 142.555 395.943 142.585C395.943 142.623 395.973 142.653 396.011 142.653H408.307C409.007 142.653 409.678 142.375 410.173 141.88L414.967 137.086C415.462 136.591 415.74 135.919 415.74 135.219V77.3222C415.74 71.4909 411.013 66.7637 405.182 66.7637H391.984C390.526 66.7637 389.344 65.5819 389.344 64.1241C389.344 62.6662 390.526 61.4844 391.984 61.4844H413.101C414.559 61.4844 415.74 60.3026 415.74 58.8448V54.2255ZM389.892 120.417C388.484 120.04 387.648 118.592 388.026 117.184L389.254 112.599C389.314 112.376 389.344 112.147 389.344 111.916V79.3019C389.344 77.844 390.526 76.6623 391.984 76.6623H393.304C394.761 76.6623 395.943 77.844 395.943 79.3019V118.598C395.943 120.334 394.297 121.597 392.62 121.148L389.892 120.417Z" fill="#137FDE"/>
<path fill-rule="evenodd" clip-rule="evenodd" d="M516.376 103.75C516.376 97.9183 511.649 93.1911 505.817 93.1911H499.218C497.761 93.1911 496.579 94.3729 496.579 95.8308V106.872C496.579 107.572 496.857 108.243 497.352 108.738L511.87 123.256C513.533 124.919 516.376 123.741 516.376 121.389V103.75Z" fill="#137FDE"/>
<path fill-rule="evenodd" clip-rule="evenodd" d="M425.969 103.75C425.969 97.9183 430.696 93.1911 436.527 93.1911H443.126C444.584 93.1911 445.766 94.3729 445.766 95.8308V106.872C445.766 107.572 445.488 108.243 444.993 108.738L430.475 123.256C428.812 124.919 425.969 123.741 425.969 121.389V103.75Z" fill="#137FDE"/>
</svg>
