<svg width="210" height="145" viewBox="0 0 210 145" fill="none" xmlns="http://www.w3.org/2000/svg">
<path d="M40.2976 82.5391C38.6291 81.6214 40.1308 80.2867 40.2976 78.7851L45.2041 58.1718C55.3418 49.0223 75.7114 30.7144 76.0877 30.6779C76.558 30.6324 77.5364 30.5772 81.0423 30.8555C84.5482 31.1337 111.285 36.2017 113.541 36.5848C115.798 36.968 120.098 39.5225 121.886 42.0344C123.674 44.5463 123.52 48.4063 123.439 51.9088C123.374 54.7108 120.488 73.3496 119.053 82.3187C118.601 82.3091 117.594 82.2956 117.179 82.3187C116.763 82.3418 101.679 83.6432 94.1887 84.291H50.1415C48.1393 84.291 41.9661 83.4567 40.2976 82.5391Z" fill="#66A8E3"/>
<path d="M47.7934 82.243C49.6253 82.3324 67.07 78.9211 75.5634 77.2043C71.6118 68.9339 76.6456 63.1362 79.6564 61.2711C77.902 61.3217 50.1389 58.3558 49.7364 58.246C49.3338 58.1362 49.3338 57.8801 49.5168 57.4409C49.6998 57.0018 51.2367 57.1482 53.0299 57.1848C54.4644 57.214 63.1666 58.2948 67.3384 58.8315C68.2899 58.6094 70.2294 50.7807 70.5953 50.3782C70.9613 49.9756 71.1808 49.9024 71.5834 50.3782C71.9859 50.8539 72.6805 58.8149 73.2057 59.0536C73.731 59.2924 85.4703 59.6187 86.3214 59.7333C87.0023 59.825 93.6264 61.8531 96.8534 62.8556C100.374 67.1535 107.702 75.4269 108.848 74.1377C110.28 72.5263 114.697 57.7847 115.489 54.0844C116.123 51.1241 115.753 48.2814 115.489 47.2301C113.285 49.9331 108.212 52.9271 102.931 54.3825C97.6497 55.838 91.9943 54.5905 86.7964 51.3469C81.5984 48.1034 77.3984 39.745 76.7747 38.0817C76.1509 36.4183 76.3084 30.75 76.161 30.5776C76.0136 30.4053 70.0773 30.6942 68.0667 30.75C66.0561 30.8059 61.5323 32.2021 57.2878 34.6036C53.0433 37.0052 45.6153 48.8452 44.5542 50.4648C43.493 52.0844 37.4055 64.2037 36.3443 69.1184C35.2832 74.0332 38.2432 79.3389 39.5836 80.6234C40.924 81.9079 45.5036 82.1313 47.7934 82.243Z" fill="#66A8E3"/>
<path d="M77.0101 75.1845C78.0228 75.6449 79.6185 74.9084 80.5391 74.5401C80.8924 75.4301 81.7223 77.3664 82.2158 77.9915C82.8327 78.7729 84.3278 79.4081 85.664 78.9222C87.0002 78.4363 87.0406 76.8572 87.0002 76.5062C86.9597 76.1553 84.9486 70.851 85.0431 70.6081C85.1376 70.3651 85.5695 70.3921 85.664 70.4596C85.7584 70.5271 86.7273 73.5178 87.5119 75.6105C88.2965 77.7031 89.2631 78.5669 91.1977 78.327C93.1323 78.0872 93.1643 75.6105 93.1483 75.3851C93.1323 75.1598 90.8299 69.4853 90.702 68.863C90.5741 68.2408 91.3256 68.446 91.4855 68.7019C91.6454 68.9577 93.8483 75.0269 93.9404 75.6105C94.0326 76.1941 93.4029 77.3305 93.4797 77.4688C93.5565 77.607 94.4374 78.0077 96.6285 77.6088C98.8196 77.2099 98.5889 74.2315 98.5889 73.6934C98.5889 73.1552 96.0902 66.3548 96.1349 66.1651C96.1795 65.9754 96.7111 65.7943 96.9873 65.9171C97.2635 66.0398 97.509 68.2186 97.7852 68.863C98.0613 69.5075 106.285 76.8723 107.452 77.6088C108.618 78.3453 109.814 78.3146 110.582 78.0077C111.349 77.7009 111.717 76.0438 111.533 75.0925C111.349 74.1412 107.574 69.2006 107.114 68.6175C106.654 68.0345 102.112 63.278 100.915 62.3574C99.7184 61.4368 98.6751 60.8231 96.9873 60.1173C95.2995 59.4115 87.8119 59.5956 86.3696 59.6263C84.9273 59.657 81.4597 60.5776 80.1402 61.0686C78.8206 61.5595 79.0354 61.5289 76.7339 63.8304C74.4324 66.1319 73.9414 70.5201 73.9414 71.9624C73.9414 73.4047 75.9974 74.7242 77.0101 75.1845Z" fill="#FFC79B"/>
<path d="M79.2763 13.2802C78.4935 15.7045 78.6703 19.6944 78.8471 20.6287L84.1302 28.9279C94.4985 28.4747 115.439 27.201 116.253 25.7314C117.27 23.8944 117.326 21.464 117.383 20.3335C117.44 19.203 116.733 17.3095 116.733 17.14C116.733 16.9704 117.044 16.716 118.768 15.5856C120.492 14.4551 121.503 11.2107 121.703 8.83988C121.903 6.46905 120.096 4.12332 119.986 4.06077C119.877 3.99822 119.788 4.2362 118.674 4.88941C117.559 5.54263 114.37 4.96626 113.41 4.88941C112.449 4.81256 105.725 1.58491 103.189 0.893273C100.653 0.201633 97.4634 -0.182611 93.7363 0.08636C90.0091 0.355331 86.7046 2.46867 84.1302 4.65887C81.5557 6.84906 80.0592 10.8559 79.2763 13.2802Z" fill="#1E1E1E"/>
<path d="M116.396 26.0688C116.895 21.9391 114.96 18.2883 114.681 18.1686C107.021 21.0523 96.0251 14.843 91.4846 11.3779C89.7793 16.745 86.2846 27.5282 85.9479 27.7246C85.527 27.9701 85.3868 27.1634 84.8607 24.4279C84.3346 21.6924 82.1953 20.1492 80.3015 20.0791C78.4076 20.009 77.0749 21.3066 76.3385 23.0251C75.602 24.7435 75.4617 26.953 76.619 29.6885C77.5449 31.877 80.3716 32.3773 81.6692 32.3539C81.7745 34.388 83.8787 40.1748 86.6493 43.6117C89.4199 47.0487 94.6104 49.4686 98.9943 50.0998C103.378 50.7311 105.693 48.8373 109.2 45.6458C112.707 42.4544 115.898 30.1984 116.396 26.0688Z" fill="#FFC79B"/>
<path d="M20.1394 81.1338H209.62L203.671 144.418H0L20.1394 81.1338Z" fill="#FECC08"/>
<path d="M177.206 54.8344C171.421 49.9377 165.438 32.6727 163.169 24.6523L150.408 31.6174L159.766 53.9901C167.99 56.3118 182.991 59.731 177.206 54.8344Z" fill="#1E1E1E"/>
<path d="M194.334 78.6335C194.46 78.0897 192.967 81.0177 191.461 81.0177L180.823 56.2295C162.279 53.8275 124.881 49.1166 123.642 49.4886C122.092 49.9535 117.598 65.9922 117.133 69.3239C116.668 72.6556 116.203 81.411 118.218 81.8759C120.232 82.3408 138.392 82.2681 140.15 83.2271C141.908 84.186 182.343 83.8202 187.32 83.9457C192.298 84.0712 194.209 79.1772 194.334 78.6335Z" fill="#AAD1F3"/>
<path d="M168.048 39.8757C165.34 39.5098 158.753 39.8025 152.532 40.2417L127.558 44.9823L123.543 49.0334C122.245 64.3516 124.053 74.0846 125.119 77.0363H133.047C131.533 71.6005 128.496 60.6152 128.468 60.1598C128.432 59.5907 129.25 59.6974 129.464 59.8041C129.635 59.8895 134.138 70.5426 136.369 75.8584C141.149 72.3488 159.775 68.6478 168.491 67.2361C167.401 63.8132 165.195 56.8914 165.09 56.587C164.959 56.2065 164.959 54.7894 165.012 54.6058C165.064 54.4221 165.589 54.2515 165.773 54.3302C165.956 54.4089 170.945 66.471 171.263 66.6071C171.58 66.7432 181.274 64.6993 181.556 64.6728C181.839 64.6463 182.113 64.8053 182.237 64.9378C182.36 65.0703 182.571 65.6845 182.407 65.9144C182.243 66.1442 160.803 70.8394 159.982 71.1349C159.161 71.4304 157.815 72.4811 157.453 73.0064C157.165 73.4267 161.601 78.9164 163.856 81.6088H165.859C166.417 81.6088 169.259 83.4914 169.751 83.6884C170.244 83.8854 183.392 84.1041 184.804 84.0713C186.216 84.0385 189.586 84.2732 192.531 82.0062C195.475 79.7393 196.289 76.5829 195.837 72.8186C195.386 69.0543 184.189 52.5785 180.502 47.8567C176.815 43.1348 170.756 40.2417 168.048 39.8757Z" fill="#AAD1F3"/>
<path d="M164.365 81.8308C164.814 81.8019 164.414 79.8981 164.106 78.8004C163.889 77.9387 161.837 75.8889 161.171 75.2529C160.505 74.6169 158.076 72.8209 157.592 72.6009C157.108 72.3809 153.852 72.3589 152.686 72.4689C151.52 72.5789 146.614 73.3708 144.92 74.1188C143.227 74.8667 141.726 77.3128 141.303 79.3232C140.88 81.3335 141.844 82.4857 142.103 82.6738C142.361 82.8619 143.643 82.7913 144.125 82.4857C144.607 82.18 145.253 80.2166 145.512 79.8169C145.771 79.4172 147.664 77.4656 147.734 77.5714C147.805 77.6772 145.747 80.828 145.665 81.3453C145.583 81.8626 146.076 82.6855 146.382 82.9912C146.688 83.2968 147.699 83.191 148.334 82.9912C148.968 82.7913 152.67 78.1108 152.96 78.0819C153.249 78.0529 153.235 78.5451 153.235 78.7477C153.235 78.9504 151.078 82.3953 150.962 82.8151C150.846 83.2348 151.049 84.0743 151.512 84.2915C151.975 84.5086 152.815 84.3494 153.235 84.0743C153.654 83.7993 155.377 81.6571 155.55 81.5992C155.724 81.5413 157.852 81.8308 158.445 81.9321C159.039 82.0334 163.917 81.8597 164.365 81.8308Z" fill="#FFC79B"/>
<path d="M143.796 56.9424C141.194 56.4695 140.137 53.6566 139.98 53.633C138.983 53.4826 139.914 57.5397 139.763 57.9059C138.919 59.958 131.256 57.1731 130.345 55.9398C117.337 38.3153 145.395 36.1828 153.944 41.1685C157.114 43.0173 156.329 45.5389 156.229 47.188C155.863 53.2389 149.805 58.0341 143.796 56.9424Z" fill="#1E1E1E"/>
<path d="M117.626 27.7927C117.138 32.5966 121.266 36.3496 124.006 37.5505L150.005 37.92C150.982 38.6324 153.275 40.1522 154.636 40.5322C156.338 41.0071 159.623 40.1364 161.285 39.1469C162.948 38.1574 164.045 36.1941 164.094 30.1437C164.144 24.1186 160.308 18.9787 157.827 15.6546L157.796 15.6129C155.316 12.2902 149.368 9.78039 145.111 8.86143C140.854 7.94247 132.867 8.99114 127.275 12.2837C121.683 15.5762 118.113 22.9889 117.626 27.7927Z" fill="#1E1E1E"/>
<path d="M131.461 27.8235C128.973 27.6414 126.424 25.8816 123.997 23.3935C119.91 28.8595 121.339 35.5093 123.423 41.6099C125.507 47.7106 131.494 50.7419 133.237 51.3861C134.98 52.0302 140.55 52.7123 146.84 49.0747C153.13 45.437 154.922 37.5432 154.981 37.4689C155.041 37.3946 155.427 37.5729 156.601 37.5432C157.775 37.5134 160.123 34.8832 160.599 31.7179C161.074 28.5527 158.429 26.5466 157.032 26.3237C155.635 26.1008 153.807 26.9775 153.079 27.676C152.497 28.2347 152.261 29.7872 152.215 30.4936C150.334 29.644 142.748 21.0874 142.566 22.2405C142.384 23.3935 144.63 25.2747 144.083 26.2457C143.537 27.2166 133.949 28.0055 131.461 27.8235Z" fill="#FFC79B"/>
<path d="M87.5173 90.5621L94.1229 79.6455L117.251 80.9152C117.065 84.9766 116.692 93.2235 116.692 93.7204C116.692 94.3415 116.86 95.164 115.97 96.5741C115.259 97.7021 113.18 97.9415 112.229 97.9203H90.1676C89.0745 97.9203 87.9109 97.0026 87.2553 96.3157C86.5997 95.6289 86.7558 93.3499 86.7714 92.6162C86.7839 92.0293 87.2739 91.0023 87.5173 90.5621Z" fill="#1E1E1E"/>
<path d="M95.855 79.8323C96.4708 78.7729 97.6036 78.1211 98.8289 78.1211H111.874C113.879 78.1211 115.46 79.8296 115.303 81.8288L114.711 89.4172C114.571 91.2077 113.077 92.5893 111.281 92.5893H94.4179C91.7653 92.5893 90.1109 89.7139 91.4439 87.4206L95.855 79.8323Z" fill="#FEFEFE"/>
<path d="M97.3636 79.683C97.5656 79.3182 97.9497 79.0918 98.3667 79.0918H112.892C113.569 79.0918 114.099 79.6752 114.033 80.349L113.126 89.716C113.069 90.3037 112.575 90.752 111.984 90.752H93.18C92.3064 90.752 91.7537 89.8142 92.1769 89.0499L97.3636 79.683Z" fill="white"/>
<path d="M147.614 90.5621L141.008 79.6455L117.88 80.9152C118.066 84.9766 118.439 93.2235 118.439 93.7204C118.439 94.3415 118.271 95.164 119.16 96.5741C119.872 97.7021 121.951 97.9415 122.902 97.9203H144.963C146.056 97.9203 147.22 97.0026 147.876 96.3157C148.531 95.6289 148.375 93.3499 148.359 92.6162C148.347 92.0293 147.857 91.0023 147.614 90.5621Z" fill="#1E1E1E"/>
<path d="M139.278 79.8323C138.662 78.7729 137.529 78.1211 136.304 78.1211H123.259C121.254 78.1211 119.673 79.8296 119.829 81.8288L120.422 89.4172C120.562 91.2077 122.056 92.5893 123.852 92.5893H140.715C143.367 92.5893 145.022 89.7139 143.689 87.4206L139.278 79.8323Z" fill="white"/>
<path d="M137.767 79.683C137.565 79.3182 137.181 79.0918 136.764 79.0918H122.239C121.562 79.0918 121.032 79.6752 121.098 80.349L122.005 89.716C122.062 90.3037 122.556 90.752 123.147 90.752H141.951C142.824 90.752 143.377 89.8142 142.954 89.0499L137.767 79.683Z" fill="white"/>
</svg>
