<svg width="125" height="96" viewBox="0 0 125 96" fill="none" xmlns="http://www.w3.org/2000/svg">
<path d="M0.201172 61.4711V52.2002L24.7892 67.3158L119.513 53.2079V63.688C119.513 66.7514 116.826 68.0547 115.483 68.3235C88.3417 73.8322 32.8911 84.9707 28.2154 85.4544C23.5396 85.9381 21.0271 84.3124 20.3553 83.439C14.8465 77.9302 3.46613 66.5902 2.01504 65.3004C0.563946 64.0105 0.201172 62.2101 0.201172 61.4711Z" fill="#1E1E1E"/>
<path d="M2.01541 18.3404C3.14404 18.0179 15.653 16.8624 21.7664 16.3249C40.3082 14.5111 77.7948 10.843 79.4071 10.6818C81.0194 10.5206 82.0943 10.6146 82.4302 10.6818C92.6416 14.2424 113.75 21.6053 116.491 22.5727C119.232 23.5401 119.648 24.8568 119.514 25.3943V55.4239C119.514 56.0688 119.111 56.3644 118.909 56.4316C88.4093 62.0747 27.0065 73.4013 25.3941 73.5625C23.7818 73.7238 23.3787 72.8236 23.3787 72.3533V36.8821L0 20.9604C0.201541 20.2214 0.88678 18.6628 2.01541 18.3404Z" fill="#66A8E3"/>
<path d="M10.8848 17.3326L20.7603 16.3249L73.9671 11.6895C77.5948 13.5705 85.3743 17.5744 87.4703 18.5418C89.5663 19.5092 88.478 20.0198 87.6719 20.1542C68.8614 22.0352 30.7567 25.8376 28.8219 25.9989C26.8871 26.1601 25.5973 25.5286 25.1942 25.1927L10.8848 17.3326Z" fill="#1E1E1E"/>
<path d="M0 21.7668C0 19.9932 0.537442 19.5498 0.806163 19.5498C0.604623 20.5575 0.604623 20.356 1.0077 21.1621C1.41079 21.9683 19.1464 33.6577 20.7587 34.8669C22.0486 35.8343 23.0428 36.2105 23.3787 36.2777C23.7146 48.7732 24.1043 73.6434 22.9757 73.1597C21.847 72.676 7.32265 60.0595 0.201541 53.8117C0.134361 43.8691 0 23.5403 0 21.7668Z" fill="#3B70A0"/>
<path d="M39.5026 51.7962L47.7658 50.7885C65.9716 48.37 102.746 43.4927 104.197 43.3315C105.648 43.1703 105.877 44.3392 105.81 44.9438C105.742 47.0936 105.608 51.6753 105.608 52.8039C105.608 53.9326 104.802 54.3491 104.399 54.4163C83.5057 57.4394 41.3568 63.5259 39.9057 63.6871C38.4546 63.8484 38.0918 62.9482 38.0918 62.4779V53.6101C38.0918 52.4815 39.0323 51.9306 39.5026 51.7962Z" fill="#1E1E1E"/>
<path d="M79.6092 18.3402L28.2163 23.5803L20.3562 5.8015C19.7113 4.34273 21.028 3.87886 21.767 3.82928C36.7482 2.55285 67.154 0 68.9276 0C70.7011 0 71.5476 1.07488 71.7491 1.61233L79.6092 18.3402Z" fill="#66A8E3"/>
<path d="M19.3491 6.65128C19.1879 4.87772 20.3568 4.16561 20.9614 4.03125L21.163 7.05436L28.2169 23.5807L20.3568 20.3561C20.0881 16.5268 19.5103 8.42484 19.3491 6.65128Z" fill="#3B70A0"/>
<path d="M64.8957 95.9333C61.5098 78.3589 48.8396 61.3354 42.9277 55.0205L98.7546 47.5635C113.265 58.6885 121.999 76.7869 124.552 84.4455C117.296 91.2979 64.8957 95.9333 64.8957 95.9333Z" fill="#EAEAEA"/>
<circle cx="108.631" cy="34.665" r="4.23236" fill="#FECC08"/>
</svg>
