<svg width="164" height="97" viewBox="0 0 164 97" fill="none" xmlns="http://www.w3.org/2000/svg">
<path d="M58.8199 76.0847C58.4155 74.8941 59.696 72.2434 63.2228 70.5137C66.5849 71.4272 72.6127 73.6496 69.8272 75.2311C66.3453 77.2079 62.3243 77.6797 61.1786 77.7246C60.0329 77.7695 59.2242 77.2753 58.8199 76.0847Z" fill="#FEFEFE"/>
<path d="M80.2894 76.92C79.3092 76.7355 75.7753 75.5534 74.1309 74.9854C74.6525 73.1328 75.8064 69.444 76.2493 69.5097C76.803 69.5917 82.0479 71.2696 82.2209 71.3705C82.3938 71.4714 81.5146 77.1506 80.2894 76.92Z" fill="#FFC79B"/>
<path d="M56.485 69.9907C57.4541 70.6748 73.323 77.1279 74.1681 77.1279C74.9252 77.1279 76.4057 71.3859 76.8276 69.6423C76.9969 69.6756 81.7706 71.1816 82.2049 71.3889C82.6392 71.5962 85.4661 73.8432 88.3479 73.7324C91.2297 73.6216 99.875 67.5809 100.263 66.9159C100.651 66.2508 100.208 64.3666 99.875 63.4245C99.5425 62.4824 97.88 60.7644 95.1644 60.3851C92.992 60.0817 84.3208 61.1396 80.2568 61.7065C74.3471 60.924 62.3794 59.3476 61.7866 59.302C61.0455 59.245 56.7985 59.1595 55.4019 60.3851C54.0052 61.6107 53.3496 63.0644 53.4351 65.0596C53.5206 67.0548 55.5159 69.3066 56.485 69.9907Z" fill="#1E1E1E"/>
<path d="M80.6683 70.6911C80.1264 70.7328 80.0014 74.526 79.7096 75.9015C79.603 76.1716 79.4538 76.7564 79.7096 76.9347C80.0293 77.1575 84.5158 78.4204 86.373 78.7176C88.2302 79.0147 89.1217 78.9033 91.4643 78.7176C93.8069 78.5319 92.2563 76.9436 91.4643 75.1929C90.6723 73.4422 90.047 73.7757 88.7132 73.1088C87.3793 72.4418 81.2102 70.6495 80.6683 70.6911Z" fill="#FEFEFE"/>
<path d="M60.3532 59.7119C60.0369 59.1246 60.7861 55.1753 61.2002 53.2741L66.8209 53.866L68.7353 56.692C68.6441 57.868 68.6623 60.3896 69.4646 61.0677C70.4673 61.9154 71.7351 62.3784 72.3802 62.701C73.0253 63.0235 73.4066 64.2258 73.9344 63.7273C74.4622 63.2288 75.9577 62.613 77.5411 62.3784C78.8079 62.1907 82.6482 57.2848 84.4099 54.8553C87.61 53.7636 94.236 51.9188 95.1395 53.2741C96.2689 54.9683 95.8172 58.4695 95.1395 60.2201C94.4618 61.9707 81.5299 66.7143 80.7393 67.1096C79.9487 67.5049 76.0522 69.4814 74.6404 69.4249C73.511 69.3798 72.9651 68.7661 72.8333 68.4649C72.4757 68.6532 71.5571 69.007 70.7439 68.9167C69.7274 68.8038 66.5085 66.4884 64.7579 64.9072C63.0073 63.326 60.7485 60.446 60.3532 59.7119Z" fill="#FFC79B"/>
<path d="M72.5547 66.076C72.6457 65.3292 72.8279 65.1289 73.5383 64.2728C73.5383 63.945 73.3015 63.8175 73.0829 63.8357C72.8643 63.8539 71.8626 65.2564 71.6258 65.7664C71.389 66.2764 71.4072 66.586 71.4801 67.0049C71.5529 67.4238 72.3908 68.3528 72.5547 68.4803C72.7186 68.6078 72.8825 68.3528 72.7733 68.1342C72.664 67.9156 72.4636 66.8228 72.5547 66.076Z" fill="#FFC79B"/>
<path d="M64.2797 55.6533C63.2519 55.5132 59.5612 54.3452 59.1875 53.9248C61.3674 47.0405 64.8784 43.1187 66.235 42.0751C67.5917 41.0316 73.4878 39.7793 77.6099 39.7793C81.732 39.7793 85.1533 40.3832 86.9907 40.9377C88.8281 41.4923 91.3901 43.1929 92.7949 44.7456C93.9188 45.9878 96.5905 52.2262 97.7858 55.1902C94.8279 55.6769 88.7674 56.6114 88.189 56.4557C87.4659 56.261 86.3106 51.9622 86.008 51.0363C85.7053 50.1104 85.3313 49.9145 85.1533 50.1282C84.9752 50.3419 85.5094 52.158 85.6518 52.8702C85.7943 53.5825 86.3284 58.7282 86.1682 58.9241C86.008 59.1199 81.4676 61.5351 80.8622 61.8264C80.2568 62.1176 79.4021 62.2359 79.0282 62.2537C78.6543 62.2715 77.7284 62.3605 77.4435 62.3961C77.1587 62.4317 73.6063 61.9994 71.254 61.5351C68.9018 61.0708 68.4994 56.2607 68.4685 55.1902C68.4375 54.1197 68.9018 48.7215 68.4685 48.7834C68.1218 48.8329 67.3068 53.7889 66.9426 56.2607C66.3976 56.1049 65.1019 55.7654 64.2797 55.6533Z" fill="#3B70A0"/>
<path d="M60.7853 24.7858C61.4126 25.4596 64.5726 27.2952 66.2687 27.8296L69.3822 21.3471C68.4141 21.1379 66.3245 20.6918 65.7111 20.5803C64.9443 20.4409 60.4832 20.4641 59.9488 21.7653C59.4144 23.0664 60.158 24.112 60.7853 24.7858Z" fill="#FECC08"/>
<path d="M88.3214 36.283C86.5406 39.7688 83.1828 39.8665 80.8716 39.8665C81.7809 27.9691 68.3914 28.4777 66.8379 28.1746C65.2844 27.8714 64.9434 25.598 64.6782 24.4992C64.4129 23.4004 65.1329 21.506 65.5875 20.8997C66.0422 20.2935 66.5727 20.7482 67.7094 20.6345C68.8461 20.5208 71.6499 19.8767 76.1209 19.6115C80.5919 19.3462 88.8898 26.7347 89.2687 27.682C89.6476 28.6292 90.1022 32.7971 88.3214 36.283Z" fill="#1E1E1E"/>
<path d="M75.2235 44.3938C73.5139 44.1333 72.9259 42.5569 72.9259 41.3222C66.2709 39.9682 66.1242 36.6962 65.6153 35.0103C65.1063 33.3244 66.2563 30.3397 66.435 29.8929C66.6138 29.446 66.4708 28.2843 66.435 27.2119C66.4064 26.354 66.8303 25.1044 67.0458 24.5869C67.7972 25.1279 69.6876 26.3541 71.2384 26.9311C72.7891 27.5082 77.9254 27.0213 80.2997 26.7057C80.3447 29.5909 82.0639 32.978 82.2471 33.039C82.4302 33.1001 82.8576 32.7948 83.1629 32.4692C83.4682 32.1436 84.7503 31.2684 86.1139 31.4109C87.4775 31.5534 88.1084 32.7541 88.1694 34.5247C88.2305 36.2953 86.0121 37.4757 85.1574 37.6182C84.3026 37.7607 83.1629 37.0076 82.9594 37.0076C82.7559 37.0076 81.9418 38.5544 81.8197 38.8393C81.6976 39.1242 81.6292 39.8467 81.507 40.8032C81.3849 41.7597 80.6886 42.3434 79.7117 43.1371C78.7349 43.9308 77.3604 44.7194 75.2235 44.3938Z" fill="#FFC79B"/>
<path d="M78.8168 39.8753C78.4853 40.0765 73.7026 41.284 72.9805 41.2722C72.9805 41.8286 73.1225 43.0835 73.4185 43.2492C73.7145 43.415 74.5313 43.2966 75.5731 43.0835C76.6149 42.8704 79.4443 39.7924 79.3022 39.6859C79.1601 39.5793 79.1483 39.674 78.8168 39.8753Z" fill="#FFC79B"/>
<path d="M77.1179 24.3191C78.7413 24.8757 86.8583 29.1429 89.6876 31.1837C90.0842 29.7586 90.0177 25.5555 89.6876 23.7174C89.3575 21.8793 86.8972 18.8442 84.9308 17.1771C82.9645 15.51 79.5447 14.9115 75.1845 15.2108C70.8243 15.51 67.7466 19.8702 67.4901 20.2976C67.2336 20.7251 65.5686 20.7476 66.2644 20.794C66.9601 20.8404 75.4945 23.7625 77.1179 24.3191Z" fill="#FECC08"/>
<path d="M62.4941 20.1271C61.0894 20.2304 60.5317 21.0567 60.2012 21.4492C60.4284 21.4492 61.8744 20.8294 62.3289 20.7262C62.7833 20.6229 66.9147 20.9121 67.5964 21.036C68.2781 21.16 71.8518 22.482 72.3682 22.6266C72.8846 22.7712 72.4302 22.4407 72.1203 22.1102C71.8105 21.7797 69.3523 20.7468 68.3607 20.4989C67.3692 20.251 63.8988 20.0238 62.4941 20.1271Z" fill="#FECC08"/>
<path d="M66.8251 56.1859C66.7722 56.1198 66.6163 55.4878 66.5449 55.1801L66.8251 48.0352L87.0967 48.6206C87.4633 50.9522 88.1795 55.7857 88.1114 56.4668C88.0262 57.3182 88.0263 57.006 87.856 57.3182C87.6857 57.6304 86.6072 58.7088 86.2383 58.9075C85.8693 59.1062 74.4601 62.0564 73.8629 62.0365C73.2657 62.0166 70.765 61.9011 70.5749 61.8211C70.3849 61.7411 67.8101 59.9294 67.4433 59.541C67.0765 59.1526 66.8913 56.2687 66.8251 56.1859Z" fill="#3B70A0"/>
<path d="M161.295 86.0717C163.5 83.074 163.83 73.6195 162.506 66.7109C146.645 68.2813 115.514 71.6144 117.871 72.384C120.817 73.346 127.015 76.3568 130.059 78.4704C133.103 80.584 144.268 86.937 146.733 88.0801C149.198 89.2231 157.505 89.5401 158.149 89.4906C158.793 89.441 159.09 89.0694 161.295 86.0717Z" fill="#1E1E1E"/>
<path d="M116.673 73.761C118.276 73.1099 123.184 65.7475 124.336 64.1949L122.035 60.1596L109.675 55.9609L106.797 63.0845C103.521 63.3096 96.5032 63.8556 94.6464 64.2385C92.3254 64.717 90.8436 66.171 89.1891 67.5826C87.8656 68.7119 87.8686 70.7448 88.0356 71.6201C89.8861 71.236 93.7748 70.4367 94.5253 70.3116C95.4634 70.1553 106.256 73.0598 109.962 74.0615C113.668 75.0632 115.071 74.4121 116.673 73.761Z" fill="#FFC79B"/>
<path d="M114.635 93.8554C114.431 93.1094 115.245 92.9738 116.127 92.3633C108.033 89.447 91.4529 83.6413 89.8794 83.7498C87.9125 83.8855 83.911 85.1063 83.7753 89.8539C83.6397 94.6015 90.8967 95.8223 92.2532 96.1614C93.6096 96.5005 113.278 95.3475 114.092 95.2119C114.906 95.0763 114.838 94.6015 114.635 93.8554Z" fill="#1E1E1E"/>
<path d="M101.63 63.6365C101.161 65.1605 103.154 65.395 107.023 66.2742C110.755 62.4251 116.929 54.8793 111.771 55.4889C105.323 56.2509 102.099 62.1125 101.63 63.6365Z" fill="#1E1E1E"/>
<path d="M117.291 92.5066C117.087 91.7606 115.19 93.117 116.072 92.5066C107.979 89.5902 91.3982 83.7846 89.8247 83.8931C87.8578 84.0287 83.8563 85.2496 83.7206 89.9972C83.585 94.7448 90.842 95.9656 92.1985 96.3047C93.5549 96.6438 113.224 95.4908 114.037 95.3552C114.851 95.2195 117.494 93.2527 117.291 92.5066Z" fill="#FEFEFE"/>
<path d="M143.688 95.1479C148.585 94.5934 153.945 92.0984 157.641 89.2337C161.797 85.6471 160.691 82.1183 160.691 79.6233C160.691 77.1283 139.529 74.9105 136.48 73.5244C133.43 72.1382 103.305 69.1812 100.256 69.6432C97.2062 70.1053 89.0743 70.7521 86.3021 72.3231C83.5298 73.894 82.4209 77.0359 84.0843 81.5639C85.7476 86.0919 98.3151 89.2337 111.345 92.5604C124.374 95.8871 138.79 95.7023 143.688 95.1479Z" fill="#1E1E1E"/>
<path d="M140.721 81.454C142.949 81.5035 143.395 81.454 146.466 80.3149L136.808 55.0568L131.707 43.8145L124.575 59.7617L117.84 70.806C120.762 72.9521 127.121 77.5414 129.181 78.7301C131.757 80.2158 138.492 81.4044 140.721 81.454Z" fill="#66A8E3"/>
<path d="M130.521 19.5825L136.031 28.5727C131.832 30.7152 123.414 34.798 123.331 33.9893C123.248 33.1806 121.707 30.4555 120.946 29.1941C120.782 29.3755 119.63 29.951 116.333 30.8011C112.211 31.8639 110.449 29.22 109.982 28.6757C109.516 28.1314 108.133 23.1807 107.909 22.8696C107.685 22.5586 107.044 22.6623 106.353 22.5845C105.663 22.5067 105.213 21.8069 105.213 21.3144C105.213 20.8219 107.044 17.5301 107.209 17.1672C107.374 16.8044 107.314 15.7881 107.044 14.2167C106.827 12.9596 107.679 9.80724 108.133 8.38821L113.411 5.95215L125.185 9.83825L130.521 19.5825Z" fill="#FFC79B"/>
<path d="M125.911 64.7242C125.541 65.032 114.215 60.3896 108.598 58.0299C110.507 52.952 114.42 42.4807 114.794 41.2186C115.261 39.641 118.358 35.8431 119.994 34.6746C121.63 33.506 133.637 27.2203 135.274 26.7429C136.911 26.2655 143.356 29.2322 145.674 30.5622C147.993 31.8921 151.56 35.58 156.35 43.2166C160.182 49.326 162.69 65.7673 163.465 73.2243C163.465 73.2243 160.107 75.855 155.069 78.5417C145.726 83.525 134.377 80.0496 125.911 74.9595C124.514 74.1199 124.9 73.2803 125.068 71.7691C125.236 70.2578 126.3 69.3622 127.867 66.3398C129.434 63.3173 132.521 50.4014 132.572 49.9667C132.623 49.5321 132.097 49.3171 131.669 49.5549C131.241 49.7927 129.957 55.6897 129.434 57.259C128.911 58.8284 126.372 64.3395 125.911 64.7242Z" fill="#66A8E3"/>
<path d="M119.45 17.8517H117.162L114.451 9.92938C113.039 9.97174 109.799 10.0311 108.138 9.92938C106.062 9.80228 103.381 6.42517 104.185 4.17981C109.033 4.17981 111.266 1.27708 113.342 0.768702C115.417 0.26032 121.144 -0.671712 126.694 0.768704C132.244 2.20912 134.744 7.34511 135.125 8.95498C135.506 10.5649 135.21 18.7837 134.744 20.9867C134.278 23.1897 131.82 24.503 129.956 24.7148C128.465 24.8843 125.268 22.6672 123.856 21.5374C126.228 20.563 126.44 18.0635 126.101 16.03C125.762 13.9964 124.11 13.4881 121.907 13.5728C120.145 13.6406 119.535 16.4536 119.45 17.8517Z" fill="#1E1E1E"/>
<path d="M44.132 13.1262C43.5583 12.782 41.6768 11.6705 41.2637 11.4912L43.3611 25.5676C44.016 26.0236 45.5297 26.9056 46.3454 26.7863C47.3651 26.637 49.1309 24.6723 49.6531 22.1605C50.1754 19.6486 48.6335 17.087 47.9371 16.1171C47.2408 15.1472 44.7057 13.4704 44.132 13.1262Z" fill="#1E1E1E"/>
<path d="M36.1667 38.0108C35.0497 40.4095 32.7499 45.4376 32.4862 46.3604L22.7615 41.4184L20.9082 26.2211L33.8079 13.5449C36.7914 13.9436 43.1415 15.1414 44.6733 16.7429C46.5882 18.7448 46.0007 24.6198 46.0877 25.0767C46.1747 25.5337 48.0678 29.0587 48.1331 29.5809C48.1983 30.1031 47.6326 30.5601 47.3933 30.6906C47.1539 30.8212 45.6743 30.7559 45.5437 30.8865C45.4132 31.017 45.4502 32.2429 44.791 34.1106C44.1318 35.9783 42.0993 38.0108 40.6162 38.5051C39.4296 38.9007 37.1554 38.3403 36.1667 38.0108Z" fill="#FFC79B"/>
<path d="M28.6754 38.7687C30.3991 37.2605 31.0095 32.6939 31.0993 30.5992C28.3812 30.1733 28.0457 28.4882 27.8343 26.6912C27.6229 24.8943 29.1556 23.1501 30.5826 22.9916C31.7242 22.8647 33.2148 24.3875 33.8174 25.1647C34.7798 24.945 37.4576 24.1103 40.4702 22.5287C44.2359 20.5517 44.5183 17.2881 44.4869 16.127C44.4555 14.9659 42.7446 12.5256 41.9538 11.8477C41.163 11.1699 36.9265 9.70123 32.2946 9.36231C27.6626 9.02339 22.6918 12.0172 19.9239 14.5591C17.1561 17.101 15.6309 25.3481 15.2355 26.5343C14.8401 27.7205 8.31027 32.3595 6.04374 34.6261C3.77722 36.8926 2.04899 40.8024 2.50229 44.9954C2.86494 48.3499 6.69537 50.3218 8.56525 50.8884C8.65591 49.4832 9.7174 48.0552 10.2368 47.5169C10.3955 48.8542 12.7772 50.9073 13.9482 51.7667C14.4582 45.4204 19.4735 42.6738 20.7304 41.9556C21.9872 41.2375 26.5208 40.6539 28.6754 38.7687Z" fill="#1E1E1E"/>
<path d="M41.8883 92.6283C41.433 91.7746 42.0021 90.8071 41.8883 90.0103C47.295 87.4872 58.4043 82.3954 59.5881 82.2133C61.0678 81.9857 65.8485 82.8963 67.3851 83.6361C68.9218 84.376 71.2552 85.5712 71.369 88.4168C71.4828 91.2624 69.9462 92.6283 66.6453 94.165C63.3443 95.7016 50.8236 95.0186 46.9535 94.7341C43.0835 94.4495 42.3436 93.482 41.8883 92.6283Z" fill="#FEFEFE"/>
<path d="M24.1787 86.7957L45.4131 77.1437C48.4113 72.6698 54.3475 63.6184 54.1059 63.2042C53.8038 62.6865 52.0348 60.1839 50.4815 58.2854C48.9282 56.3869 45.8628 55.9451 45.1719 55.8336C44.6193 55.7445 42.025 55.9589 40.7969 56.0773L26.8645 50.2021H24.1787L26.277 64.1346L30.2217 66.065L30.8092 72.7794L19.6465 82.3474L24.1787 86.7957Z" fill="#1E1E1E"/>
<path d="M0.351918 81.6353C-0.378237 78.5408 0.038995 73.6731 1.4993 70.0919L28.3645 75.5276C26.1674 77.485 21.7555 81.5324 21.6848 82.0629C21.5964 82.726 22.2608 84.0403 23.5026 83.2242C24.7444 82.4081 35.9209 74.3185 38.1208 73.6089C39.8806 73.0412 53.763 68.774 60.4842 66.7113C64.7198 66.1466 67.6846 69.2879 68.8494 71.441C70.0142 73.594 69.0612 77.6884 67.8611 79.7709C66.6611 81.8533 61.1931 83.6683 48.6791 88.7746C36.165 93.8809 28.2021 96.134 16.6587 95.4039C5.1153 94.6737 1.08207 84.7297 0.351918 81.6353Z" fill="#1E1E1E"/>
<path d="M38.286 75.3968C36.2084 75.1407 30.4026 64.3829 30.1465 63.4722L41.8122 59.3691C42.3277 61.2837 43.501 65.0503 44.0705 64.7996C44.7823 64.4863 54.9656 60.9986 56.7006 61.0125C58.4355 61.0264 61.275 64.351 61.5741 64.7996C61.8732 65.2483 61.3647 66.5642 61.1404 66.8034C60.9161 67.0427 55.6644 67.3341 55.3917 67.4364C55.119 67.5387 48.133 72.6647 45.2301 74.4292C42.3273 76.1937 40.3635 75.6529 38.286 75.3968Z" fill="#FFC79B"/>
<path d="M16.6655 78.0095C25.2779 78.7972 31.3979 76.0124 33.3814 74.5215L33.5362 69.6565C32.4529 67.9021 30.5018 64.2867 30.6168 64.1256C30.7606 63.9243 44.2083 59.5665 44.336 59.3537C44.4636 59.1409 40.8889 49.268 40.1229 47.0125C39.3569 44.7571 38.6502 43.3155 37.2882 41.6538C35.9262 39.9922 29.9333 36.5054 28.8982 36.1785C27.863 35.8516 27.2365 35.9333 25.3842 36.1785C23.5318 36.4237 16.6655 37.7044 10.495 43.8093C4.32451 49.9141 0.123338 71.7077 0.451555 72.3642C0.779773 73.0206 5.89996 77.0248 16.6655 78.0095Z" fill="#AAD1F3"/>
</svg>
