<svg width="117" height="142" viewBox="0 0 117 142" fill="none" xmlns="http://www.w3.org/2000/svg">
<path d="M23.5965 125.004C30.8187 126.532 31.5826 111.601 31.3743 109.379C30.8644 108.159 22.3465 97.0875 20.1243 94.8653C17.9021 92.6431 12.9716 92.782 11.0272 92.782C9.08275 92.782 3.66612 94.3098 3.94389 96.0459C4.22167 97.782 6.7911 105.56 9.98552 112.851C13.1799 120.143 16.3744 123.476 23.5965 125.004Z" fill="#FFC79B"/>
<path d="M77.6572 51.734C77.742 52.5396 78.0388 52.6244 79.438 54.278C77.2986 56.6805 72.547 61.7063 70.6555 62.5897C68.2912 63.6939 52.7191 62.9762 47.1095 55.0292C45.7881 53.1572 55.3701 57.3387 55.37 49.038C60.9282 46.2074 73.7732 39.5396 74.5195 40.1162C75.2657 40.6929 76.9222 43.0418 77.6572 44.1443C77.6572 44.1443 77.5724 50.9284 77.6572 51.734Z" fill="#FFC79B"/>
<path d="M27.6727 141.036L27.2659 106.895L10.3203 88.2012C10.3203 88.2012 19.884 74.6238 20.6321 72.2397C21.3803 69.8555 26.5425 63.6715 30.358 61.5109C33.4105 59.7823 42.8277 55.5524 47.6983 54.1894C48.2162 56.4243 52.7472 61.9658 62.38 61.9658C72.0128 61.9658 76.903 56.2009 78.1441 53.3184C81.7534 53.7351 96.5197 58.4948 101.96 61.1719C107.401 63.8491 110.665 71.2433 111.817 74.9403C112.739 77.898 115.246 99.9039 116.384 110.537L92.8011 111.33L91.2663 141.036H27.6727Z" fill="#66A8E3"/>
<path d="M85.998 141.035L86.3654 78.5439L87.5793 79.7015C88.1712 93.8738 89.3712 122.614 89.436 124.198C89.5007 125.782 87.9523 136.083 87.17 141.035H85.998Z" fill="#1E1E1E"/>
<path d="M111.978 110.649L89.1576 111.248C89.3559 115.062 89.7462 122.991 89.7213 124.2C89.6965 125.41 87.9931 135.928 87.1445 141.035H108.093C109.479 135.116 112.272 122.911 112.356 121.449C112.44 119.986 112.139 113.64 111.978 110.649Z" fill="#FFC79B"/>
<ellipse cx="59.7523" cy="26.9214" rx="19.6839" ry="24.4029" fill="#FFC79B"/>
<path d="M70.7877 13.1574L74.5107 31.2362L72.5508 40.9584C73.4456 42.9585 75.5404 46.6956 76.7616 45.6429C78.288 44.327 83.6042 32.5893 85.078 26.5889C86.5518 20.5885 82.904 10.7135 78.0248 6.21898C73.5301 2.07854 68.4978 0.744921 64.0764 0.113274C58.0379 -0.749407 45.1051 3.53395 37.8301 5.5601C42.3853 16.0147 52.3893 16.0139 54.6697 16.0137H54.6974C56.4781 16.0137 66.1662 14.1095 70.7877 13.1574Z" fill="#1E1E1E"/>
<ellipse cx="74.8789" cy="27.9424" rx="6.72974" ry="7.98287" transform="rotate(6.62572 74.8789 27.9424)" fill="#FFC79B"/>
<path d="M0.0117188 60.7378L17.5518 59.9944L19.2053 58.5488C13.5692 58.8136 2.12184 59.352 1.42136 59.388C0.720874 59.4239 0.18973 60.3029 0.0117188 60.7378Z" fill="#F6BF47"/>
<path d="M10.5148 79.2275C11.2162 80.1394 19.5638 93.9164 19.7977 95.0154L10.5148 97.7278L2.6582 82.4075C5.04323 81.0436 9.95358 78.498 10.5148 79.2275Z" fill="#FFA762"/>
<path d="M0 60.7329L17.5979 59.9229L26.3212 92.0743L9.63738 92.5462L0 60.7329Z" fill="#F6BF47"/>
<path d="M18.2207 58.8172C17.7863 59.0995 17.5257 59.4253 17.5692 60.3592L26.323 92.0433C26.8122 91.7528 27.8549 91.0754 28.1117 90.6902C28.3685 90.305 28.2187 89.317 28.1117 88.8712L20.0325 60.2499C19.9281 59.823 19.6802 58.917 19.5238 58.7085C19.3284 58.4479 18.6551 58.5348 18.2207 58.8172Z" fill="#E2A00F"/>
<path d="M14.0779 74.0277C12.9026 73.9102 5.26274 75.2618 3.79354 75.9083C2.61818 76.2763 1.20284 77.5321 0.280417 79.3313C-0.642011 81.1306 0.907668 88.1584 2.08838 91.9957C3.26908 95.833 3.97013 100.15 8.84055 101.626C13.711 103.102 17.7235 99.5672 18.9281 98.3919C20.1328 97.2166 20.3091 94.8954 19.8977 94.4841C19.4864 94.0727 15.7266 95.3625 14.9327 95.5742C14.1389 95.7859 12.26 95.7329 11.5455 95.7329C10.8311 95.7329 10.6723 95.3095 10.6723 95.0714C10.6723 94.8332 22.2893 89.0644 22.9509 88.4822C23.6124 87.9001 23.3478 86.7093 22.9509 85.8625C22.5539 85.0157 21.9776 84.7616 21.161 84.6667C20.3443 84.5717 8.55132 89.7665 8.13964 89.9522C7.72796 90.1378 7.24363 89.9845 7.09026 89.7665C6.93689 89.5486 7.16808 89.3711 7.35118 89.127C7.53428 88.8828 19.7406 83.9698 20.6256 83.512C21.5106 83.0543 21.419 81.498 20.9613 80.4909C20.5035 79.4839 19.3439 79.3313 18.7946 79.3313C18.2454 79.3313 6.34415 83.3289 5.58126 83.512C4.81836 83.6951 4.3301 83.7256 4.20804 83.3289C4.08598 82.9322 4.26369 82.6078 4.9689 82.2552C5.67412 81.9026 14.0779 79.3168 15.3121 78.8467C16.5462 78.3765 17.0163 77.2012 16.7225 75.9083C16.4287 74.6153 15.2533 74.1452 14.0779 74.0277Z" fill="#FFC79B"/>
</svg>
