<svg width="229" height="194" viewBox="0 0 229 194" fill="none" xmlns="http://www.w3.org/2000/svg">
<path d="M6.97002 98.1969C6.47886 96.4945 6.87066 89.1973 7.12796 85.7614C7.24389 84.0365 7.85478 82.7339 8.14574 82.2983C22.057 64.9343 50.9863 28.8496 55.4139 23.423C60.9484 16.6397 68.3709 19.3965 69.0564 19.775C69.7419 20.1535 213.661 87.5462 219.452 91.6382C224.085 94.9119 223.327 99.7408 222.368 101.746C212.294 122.421 190.683 166.095 184.836 175.389C178.988 184.683 171.04 184.984 165.802 182.321C114.701 156.341 15.9796 105.855 12.6893 104.038C8.57644 101.767 7.58398 100.325 6.97002 98.1969Z" fill="#0088FF"/>
<path d="M58.1915 24.0628L12.7086 82.1349C8.60048 87.3801 12.9172 91.6421 15.5891 93.1174C64.3928 118.127 163.515 168.805 169.576 171.436C175.637 174.067 179.447 170.029 180.595 167.681L216.552 102.56C219.883 96.528 215.563 92.4728 212.986 91.1992C166.904 69.63 73.506 25.8104 68.5706 23.0852C63.6351 20.36 59.5948 22.6014 58.1915 24.0628Z" fill="#2AA3FF"/>
<path d="M45.6172 44.4002C41.7895 49.4424 33.8383 59.9004 32.6557 61.3941C31.1775 63.2616 34.9149 66.2202 36.9251 64.1995C41.1825 58.6491 49.7352 47.4798 49.8866 47.2056C51.0714 45.0599 47.2096 42.5169 45.6172 44.4002Z" fill="#F9F9F9"/>
<path d="M158.349 65.4154C178.504 74.8778 198.293 84.1525 213.158 91.1104C215.735 92.384 220.055 96.4391 216.724 102.471L190.341 150.252C185.876 139.562 168.206 92.0987 158.349 65.4154Z" fill="#86CBFF"/>
</svg>
