<svg width="195" height="191" viewBox="0 0 195 191" fill="none" xmlns="http://www.w3.org/2000/svg">
<path d="M177.905 176.762C187.973 172.643 186.295 153.308 184.198 144.155C185.723 141.867 189.346 138.549 191.634 143.583C194.495 149.876 200.215 175.045 180.193 180.194C164.176 184.313 151.401 181.91 147.015 180.194L140.15 164.177C148.54 170.088 167.837 180.88 177.905 176.762Z" fill="#0088FF"/>
<path d="M171.041 36.6103C166.922 23.3389 155.596 19.2583 150.447 18.877L127.566 19.449L125.85 32.034C126.803 28.7924 131.341 23.3389 141.867 27.4576C155.024 32.606 156.74 55.4877 163.032 73.2211C169.325 90.9545 167.609 124.705 172.757 133.286C176.876 140.15 182.863 140.341 185.342 139.578C188.012 138.434 193.236 134.315 192.779 126.993C192.207 117.841 176.189 53.1996 171.041 36.6103Z" fill="#0088FF"/>
<path d="M124.134 18.3049C119.1 18.7625 118.223 20.7837 118.413 21.7371C120.129 26.3135 124.934 33.7502 130.426 26.8857C135.918 20.0211 146.825 18.6863 151.592 18.8769C144.537 18.4955 129.168 17.8472 124.134 18.3049Z" fill="#2AA3FF"/>
<path d="M66.3569 4.57635C64.6408 8.96202 61.2085 17.9622 61.2085 18.8774L72.6494 19.4495C73.4121 16.7799 75.2808 10.7544 76.6537 8.00861C78.0266 5.2628 81.0393 4.19499 82.3741 4.00431H105.256C107.086 4.00431 107.544 5.14839 107.544 5.72044V21.1656L117.841 24.0258C117.459 20.0215 116.582 10.8688 116.125 6.29248C115.667 1.71613 112.502 0.190681 110.976 0H74.9375C69.9036 0 67.1196 3.0509 66.3569 4.57635Z" fill="#FECF21"/>
<path d="M57.204 17.1619C36.6104 19.9078 25.7416 26.3146 22.8813 29.1749L29.1738 40.6152L100.107 82.9465C95.5309 117.078 86.9502 185.914 89.2384 188.202C92.0986 191.063 105.256 190.491 106.4 190.491C107.544 190.491 126.421 187.63 136.146 185.342C145.871 183.054 155.023 179.622 153.879 166.465C152.735 153.308 147.015 45.7636 139.006 34.3228C130.998 22.8819 121.845 20.5942 116.696 18.8781C111.548 17.1619 82.9459 13.7297 57.204 17.1619Z" fill="#0088FF"/>
<path d="M89.8109 25.1689H30.8904C24.5981 25.1689 15.4453 34.8937 12.585 43.4743C8.51969 55.6697 4.57638 157.883 6.29251 168.18C7.66542 176.417 13.3477 179.621 16.0173 180.193C37.3735 183.053 83.0608 189.002 94.9593 189.917C106.858 190.833 110.214 183.053 110.404 179.049C111.739 137.099 113.265 50.4533 108.688 39.47C104.112 28.4868 94.1965 25.3596 89.8109 25.1689Z" fill="#2AA3FF"/>
<path d="M0 107.544C0 102.968 1.90681 102.205 2.86022 102.396L10.2968 101.251L89.8108 105.255L90.3829 118.412L90.9549 171.612L78.942 176.761C57.0137 174.282 12.1273 169.21 8.00861 168.752C2.86022 168.18 1.14409 162.46 0.572044 160.744C0.114409 159.371 1.90681 131.951 2.86022 118.412L0 117.84V107.544Z" fill="#4FD6FC"/>
<path d="M3.14232 121.066L2.57422 118.985L84.9485 123.146V124.706L3.14232 121.066Z" fill="#0088FF"/>
<path d="M188.774 129.854L180.193 131.57L183.054 145.299L192.778 143.583L188.774 129.854Z" fill="#2AA3FF"/>
<path d="M80.6252 176.529C79.5667 176.801 78.5264 176.834 77.7979 176.761C78.4576 176.706 79.4311 176.626 80.6252 176.529C82.3372 176.087 84.0968 175.019 84.6624 172.757C85.5776 169.096 85.4251 137.29 85.2344 121.845L84.0903 122.417V109.26C84.0903 108.307 84.7768 106.171 87.5226 105.256C90.2684 104.341 93.6244 103.349 94.9592 102.968C95.9126 102.777 97.9338 103.082 98.3914 105.828C98.8491 108.574 98.5821 114.981 98.3914 117.841V169.897C98.7728 171.613 98.0482 175.16 92.0989 175.617C87.8649 175.943 83.573 176.288 80.6252 176.529Z" fill="#0088FF"/>
<path d="M10.8685 100.107L95.5309 102.968C92.48 103.921 86.2638 105.828 85.8062 105.828C85.2341 105.828 2.85986 102.968 2.85986 102.396C2.85986 101.938 8.19894 100.679 10.8685 100.107Z" fill="#4FD6FC"/>
</svg>
