<svg width="270" height="96" viewBox="0 0 270 96" fill="none" xmlns="http://www.w3.org/2000/svg">
<path d="M57.1202 53.945C68.0682 49.185 70.4086 30.9382 70.2103 22.4099L72.5904 18.8398C73.7804 26.1782 74.2564 43.2349 66.6404 52.755C57.1203 64.655 42.8401 63.465 40.4601 63.465C38.0801 63.465 27.3701 57.515 32.7251 59.3C38.0801 61.085 43.4352 59.895 57.1202 53.945Z" fill="#0088FF"/>
<path d="M145.18 52.7551C148.036 51.3271 153.51 33.1201 155.89 24.195C156.684 21.4184 158.508 17.412 159.46 23.6C160.651 31.3351 154.7 47.9951 152.915 50.9701C151.13 53.9451 146.37 59.8952 133.875 63.4652C123.879 66.3212 112.257 62.6718 107.695 60.4902L120.785 61.0852C118.604 60.2918 116.739 58.8242 126.735 59.3002C139.23 59.8952 141.61 54.5401 145.18 52.7551Z" fill="#0088FF"/>
<path d="M51.1703 24.1952L14.8751 15.2702L12.4951 25.3852C24.1968 26.5752 47.9572 29.1933 49.3853 30.1453C50.8133 31.0973 57.5169 42.442 60.6903 47.9953L64.8553 40.8553L56.5253 28.3603C54.6213 25.5042 52.1619 24.3936 51.1703 24.1952Z" fill="#00C0E8"/>
<path d="M210.036 23.0052L166.006 11.7002L164.221 24.7902C177.311 26.3769 203.729 29.6693 204.681 30.1453C205.871 30.7403 214.201 50.3753 214.796 50.9703C215.391 51.5653 216.581 55.7304 221.341 53.9454C225.149 52.5173 224.911 48.987 224.316 47.4003C221.143 41.4503 214.558 28.9553 213.606 26.5752C212.654 24.1952 210.829 23.2036 210.036 23.0052Z" fill="#00C0E8"/>
<path d="M168.385 12.8894C167.433 10.9854 164.815 10.9061 163.625 11.1044L160.65 23.5997C161.047 23.9964 162.554 24.7897 165.41 24.7897C168.266 24.7897 168.98 23.203 168.98 22.4097C169.179 20.0296 169.337 14.7934 168.385 12.8894Z" fill="#0088FF"/>
<path d="M36.2949 0.394341C51.765 -1.98567 62.4753 6.9402 67.2354 12.8895C81.5153 9.91447 84.4902 10.5105 91.0352 12.2947C96.3901 6.93974 104.125 2.17937 120.785 0.394341C134.113 -1.03366 146.569 6.1465 151.131 9.91485C154.304 10.1132 161.126 10.5095 163.03 10.5096C164.934 10.5096 165.808 11.6997 166.006 12.2947V23.5994C166.006 24.5514 165.212 24.7898 164.815 24.7898C164.419 24.7898 163.03 24.7897 157.676 25.3846C158.271 34.9046 151.726 50.97 143.396 56.9197C135.179 62.7886 119.797 64.7021 105.91 59.8953C88.0607 53.7169 85.0857 27.1716 86.2754 21.8152C84.4904 20.6252 76.7551 18.245 71.9951 23.0047C73.1851 32.5247 67.8304 56.92 47.6006 62.2752C27.3708 67.6301 14.8752 52.7554 10.71 45.0203C7.37797 38.8323 6.14854 28.9549 5.9502 24.7898H1.78516C0.833153 24.7898 0.198334 23.5997 0 23.0047V14.6746C3.15118e-05 11.8187 1.19016 11.1043 1.78516 11.1043L13.6846 9.91485C14.8746 9.31986 20.825 2.77438 36.2949 0.394341ZM123.165 6.93926C116.108 6.70396 98.2086 4.95631 94.6055 26.575C91.0355 47.9949 110.67 56.92 120.785 58.1102C130.9 59.3002 145.776 53.3493 149.346 36.6893C152.915 20.0294 141.015 7.53426 123.165 6.93926ZM41.0557 8.12969C34.5106 7.53469 20.5869 9.20077 17.2549 20.6248C13.09 34.9047 19.0404 50.9697 29.1553 54.5398C39.2702 58.1098 51.17 58.1102 57.1201 50.9705C63.0701 43.8305 66.6406 33.12 62.4756 22.41C58.3107 11.7002 45.2211 8.18665 41.0557 8.12969Z" fill="#2AA3FF"/>
<path d="M254.866 64.5156H223.526C219.826 66.9096 212.427 71.8283 212.427 72.3506C212.427 72.8729 214.603 87.8029 215.691 95.2026H251.602C257.478 95.4202 269.23 92.7215 269.23 80.1856C269.23 67.6496 259.654 64.5156 254.866 64.5156Z" fill="#2AA3FF"/>
<rect x="224.179" y="69.7383" width="30.034" height="5.22331" rx="2.61166" fill="#FEFEFE"/>
<path d="M254.213 90.6329C251.602 91.6776 229.62 91.5034 218.956 91.2858L222.287 95.2031H254.213C256.18 95.2031 257.161 94.8931 259.151 94.2155L259.155 94.2142C260.992 93.589 262.448 93.0934 264.007 91.9385C265.607 90.7533 266.268 89.7412 267.272 88.0211C269.237 84.6522 269.949 82.0611 269.23 78.2275C268.578 74.7453 267.291 69.7843 268.578 76.9217C270.216 86.0088 257.478 89.3271 254.213 90.6329Z" fill="#0088FF"/>
<path d="M180.434 76.2661C182.523 66.8642 190.88 64.5137 194.798 64.5137C204.374 64.5137 213.732 64.5142 223.526 64.5137C222.22 65.8195 218.956 71.0428 219.609 80.1836C220.131 87.4962 222.438 93.2419 223.526 95.2006H192.839C188.269 95.2006 177.822 88.0186 180.434 76.2661Z" fill="#FED602"/>
<path d="M219.631 76.9209L180.192 77.2517C178.103 86.6537 184.996 92.9177 190.001 94.8764C192.496 95.8524 221.589 95.2025 224.201 95.2025C221.067 92.0685 219.631 81.7089 219.631 76.9209Z" fill="#FEBD03"/>
</svg>
