<svg width="274" height="163" viewBox="0 0 274 163" fill="none" xmlns="http://www.w3.org/2000/svg">
<path d="M263.026 40.9133L244.9 29.9863V97.7336H263.781L263.026 40.9133Z" fill="#0088FF"/>
<path d="M37.543 40.1323C37.2968 58.4643 36.9522 95.5743 37.543 97.358L168.269 98.8444V0L109.184 3.71595V34.93L37.543 40.1323Z" fill="#00C0E8"/>
<path d="M107.186 39.2867L109.407 35.54L110.517 97.7342H107.741L107.186 39.2867Z" fill="#0088FF"/>
<path d="M168.269 0L184.617 11.1061L186.038 97.7338H168.269V0Z" fill="#0088FF"/>
<path d="M244.901 29.9863L171.601 32.9002V97.7336H244.901V29.9863Z" fill="#00C0E8"/>
<circle cx="16.9974" cy="16.9974" r="16.9974" transform="matrix(0.999848 -0.0174524 0 1 121.545 9.46191)" fill="white"/>
<path d="M270.577 60.8834L255.061 56.4501C254.422 56.2676 253.786 56.7473 253.786 57.4117V68.7587C253.786 69.4827 254.532 69.9668 255.193 69.6721L270.71 62.7584C271.563 62.3783 271.475 61.14 270.577 60.8834Z" fill="#FEC806"/>
<path d="M253.786 107.73V55.5312" stroke="white" stroke-width="2" stroke-linecap="round"/>
<path d="M240.861 132.977C236.845 110.708 150.659 106.662 108.068 108.335C62.4352 108.336 3.13356 117.462 0.373055 128.87C-6.47306 157.162 82.9695 160.813 99.3975 162.182C115.826 163.551 245.881 160.813 240.861 132.977Z" fill="#00C0E8"/>
<path d="M218.013 133.567C214.758 115.654 144.912 112.399 110.396 113.745C73.4145 113.746 25.3559 121.086 23.1187 130.263C17.5706 153.021 90.0557 155.957 103.369 157.058C116.683 158.16 222.081 155.958 218.013 133.567Z" fill="white"/>
<path d="M180.638 129.683C178.63 118.487 135.548 116.453 114.257 117.294C91.4464 117.295 61.8027 121.883 60.4228 127.618C57.0006 141.842 101.711 143.677 109.923 144.365C118.135 145.054 183.147 143.677 180.638 129.683Z" fill="#00C0E8"/>
<path d="M120.513 79.3111V74.8034L160.844 73.3008L161.605 79.3111H157.039C156.431 79.3111 157.293 92.3336 157.8 98.8448L125.84 98.0935V79.3111H120.513Z" fill="#0088FF"/>
</svg>
