<svg width="247" height="199" viewBox="0 0 247 199" fill="none" xmlns="http://www.w3.org/2000/svg">
<path d="M3.80551 167.276C-4.33842 172.705 2.47423 184.106 6.79903 189.23C14.1446 195.617 24.2313 196.415 28.3564 196.016C32.4816 193.621 40.6528 189.552 26.7603 187.636C9.39454 185.241 9.19493 163.683 3.80551 167.276Z" fill="#F6BF47"/>
<path d="M72.6693 197.018H58.6969H49.9142V186.439H34.7441V159.892H72.6693V197.018Z" fill="#CA8F13"/>
<path d="M82.2825 198.416H71.3974C71.3136 198.416 71.2307 198.407 71.1505 198.383C63.9174 196.212 63.6833 167.393 62.6773 164.008C62.605 163.764 62.3671 163.758 62.1722 163.921C61.1491 164.777 60.6535 166.131 60.4378 167.439C60.3086 168.221 59.3921 168.744 58.6632 168.43C54.9448 166.83 47.8736 165.374 42.256 167.294C41.1254 167.68 42.6376 169.847 43.8224 169.693C48.4318 169.093 53.6804 169.986 56.3009 174.463C59.9039 180.618 56.2618 187.491 53.6013 190.669C53.3312 190.992 53.1306 191.022 53.5514 191.016C54.2148 191.006 55.5665 191.103 58.0974 191.43C62.4991 191.998 63.1236 195.449 62.8337 197.657C62.7743 198.109 62.3707 198.416 61.9146 198.416H28.2664C28.0635 198.416 27.8624 198.352 27.6975 198.233C13.9255 188.352 25.1796 165.642 27.9568 159.493C30.1765 154.578 42.0249 139.942 47.7942 133.091C47.8777 132.992 47.9379 132.882 47.9778 132.758L50.0155 126.46C50.079 126.264 50.078 126.056 50.0319 125.855C49.5335 123.682 49.8397 118.228 54.704 111.388C61.0914 102.405 63.4642 102.207 71.4709 102.206C79.8549 102.205 85.4433 110.989 86.2417 111.588C86.8805 112.067 89.8352 112.319 91.432 112.386C93.4287 112.469 98.9179 110.989 97.6198 118.773C95.6105 130.824 81.8504 129.951 81.4512 130.351C81.052 130.75 78.2575 142.327 78.6567 142.926C79.0559 143.525 80.4531 146.918 81.052 151.509C81.6508 156.1 78.6567 166.08 78.2575 167.477C77.8583 168.874 76.2614 190.632 77.0598 190.831C77.8583 191.031 80.0539 191.031 82.6488 193.626C84.519 195.496 83.7215 197.29 82.9126 198.163C82.7518 198.336 82.519 198.416 82.2825 198.416Z" fill="#F6BF47"/>
<path d="M47.7504 132.031L49.3113 127.207C49.5145 126.578 50.2602 126.316 50.8216 126.664C61.0816 133.016 73.4269 135.486 79.4695 136.047C80.0877 136.104 80.524 136.691 80.3818 137.295L79.2341 142.173C79.1299 142.616 78.7406 142.934 78.2858 142.935C66.2222 142.964 53.6137 136.71 48.141 133.157C47.7683 132.915 47.6136 132.454 47.7504 132.031Z" fill="#233828"/>
<path d="M94.1419 118.572C91.6446 118.572 91.5611 115.177 91.897 112.97C91.9602 112.556 92.2976 112.242 92.7161 112.214C94.1932 112.115 96.4338 112.235 97.4179 113.046C98.2936 113.768 98.2022 116.368 98.0264 117.774C98.0078 117.924 97.948 118.066 97.8129 118.133C97.4154 118.328 96.3631 118.572 94.1419 118.572Z" fill="#CA8F13"/>
<path d="M66.2822 131.147C66.0757 131.147 65.8746 131.139 65.6789 131.124C62.0208 130.832 66.9365 127.261 70.0748 125.359C71.2907 124.622 72.2142 123.504 72.9117 122.171C74.6731 118.805 76.2414 118.585 75.8634 122.365C75.6638 124.361 73.8672 131.147 66.2822 131.147Z" fill="#CA8F13"/>
<path d="M240.223 92.1506C240.697 91.494 235.617 89.7792 233.017 89.0039C230.752 92.3633 227.426 98.8359 232.242 97.8508C238.262 96.6196 239.63 92.9713 240.223 92.1506Z" fill="#055AA5"/>
<circle cx="8.14931" cy="8.14931" r="8.14931" transform="matrix(-1 0 0 1 183.417 4.78125)" fill="#B1C5E3"/>
<path d="M241.39 178.943L228.612 147.461L200.555 145.485L229.534 182.367L241.39 178.943Z" fill="#FFB071"/>
<path d="M183.563 182.367L195.682 140.479L171.049 145.485L169.6 183.685L183.563 182.367Z" fill="#FFB071"/>
<path d="M166.315 2.90484C177.338 9.68171 176.412 20.2754 174.571 24.7251L172.695 29.5504C162.902 28.4781 143.24 26.2371 142.94 25.8511C142.564 25.3686 136.131 21.8301 135.863 20.0072C135.595 18.1844 137.471 12.1798 139.079 9.55272C140.688 6.92566 152.536 -5.56626 166.315 2.90484Z" fill="#E6ECF4"/>
<path d="M109.78 196.336L132.74 92.5811L127.679 94.3341C120.456 127.621 105.973 194.254 105.832 194.49C105.655 194.784 105.184 197.668 107.127 198.316C108.681 198.834 109.543 197.211 109.78 196.336Z" fill="#FECF21"/>
<path d="M151.157 43.0866C155.698 43.519 162.479 36.6 165.301 33.0864L170.797 26.24L161.337 25.5192C161.968 24.1379 163.68 21.2641 160.941 19.0295C157.518 16.2364 154.111 18.3328 153.777 22.2969C149.869 22.6207 143.574 24.5322 136.292 18.5819C134.707 22.3297 138.755 28.4319 140.977 31.0145C140.737 33.6272 140.491 38.8884 141.428 39.0325C142.365 39.1767 143.92 37.9515 144.581 37.3208C144.881 39.0626 146.617 42.6542 151.157 43.0866Z" fill="#FFB071"/>
<path d="M125.846 88.1995C128.171 87.6488 134.513 84.6053 137.394 83.1523C138.539 86.5749 140.84 93.4987 140.885 93.8137C140.941 94.2074 128.735 93.1949 127.835 96.2886C126.935 99.3823 125.304 100.789 122.941 98.7636C120.579 96.7386 122.94 88.888 125.846 88.1995Z" fill="#FFB071"/>
<path d="M242.555 118.927C240.384 105.28 236.006 92.6602 234.089 88.056L217.117 87.0928H189.166L164.346 105.093C165.687 123.765 161.103 160.66 166.694 162.114C178.478 165.178 245.786 153.559 246.303 150.199C246.82 146.839 245.269 135.984 242.555 118.927Z" fill="#86CBFF"/>
<path d="M179.929 21.5852C210.201 27.2425 232.739 70.9218 240.225 92.0542C230.995 90.4194 227.739 90.526 204.095 91.388C180.452 92.25 164.204 106.442 164.204 106.442C164.204 106.442 164.674 86.353 163.519 83.786C159.553 85.7692 142.457 96.0797 140.955 95.6843C139.453 95.289 133.528 84.9825 136.754 82.9975C139.98 81.0124 154.123 63.1472 156.232 59.1771C158.341 55.207 158.411 18.774 179.929 21.5852Z" fill="#0088FF"/>
<path d="M245.922 189.586C246.769 188.54 242.912 181.76 240.878 178.501L233.592 179.498C227.634 182.321 215.432 188.067 214.286 188.465C212.854 188.963 207.997 193.696 213.228 194.817C218.459 195.938 244.864 190.894 245.922 189.586Z" fill="#FECF21"/>
<path d="M185.063 194.231C186.163 192.203 183.441 181.835 183.325 181.487C179.077 181.68 170.477 182.067 170.06 182.067C169.538 182.067 167.395 182.356 158.127 186.121C148.859 189.887 150.481 193.768 150.886 194.637C151.292 195.505 183.962 196.259 185.063 194.231Z" fill="#FECF21"/>
<path d="M163.604 106.773C180.066 93.3596 186.843 57.1547 187.647 39.1831C187.775 38.3637 187.794 37.7949 186.843 42.0742C185.654 47.4234 178.879 66.6209 174.54 73.1588C171.069 78.3891 165.803 82.5892 163.604 84.0354C164.13 91.1584 164.382 95.4232 163.604 106.773Z" fill="#055AA5"/>
</svg>
