<svg width="217" height="140" viewBox="0 0 217 140" fill="none" xmlns="http://www.w3.org/2000/svg">
<path d="M216.603 33.6611C218.783 28.2121 211.457 25.9417 207.521 25.4877C205.043 25.0335 205.024 18.1324 199.348 17.7701C188.677 17.089 190.04 22.3091 183.228 22.9902C176.417 23.6714 176.644 30.7096 175.282 31.6177C173.92 32.5259 169.152 32.7529 169.379 36.8396C169.606 40.9263 213.879 40.4723 216.603 33.6611Z" fill="#ABE9E7"/>
<path d="M156.656 22.0242L153.479 2.72461L177.771 21.5701L181.63 36.5547L156.656 22.0242Z" fill="#FED50F"/>
<path d="M128.958 22.25L130.093 38.3697L156.43 18.8444L153.478 2.72461L128.958 22.25Z" fill="#AA8E08"/>
<path d="M52.9 37.362L26.5635 139.757H65.3871L81.2799 12.3877L52.9 37.362Z" fill="#00C0E8"/>
<path d="M105.346 31.4596L81.2794 12.4873L65.3867 139.757H108.07L105.346 31.4596Z" fill="#4FD6FC"/>
<path d="M0.396966 15.9521C-1.78261 10.5032 5.54318 8.23279 9.47852 7.77871C11.9574 7.32458 11.9759 0.423508 17.6518 0.0611941C28.3227 -0.619956 26.9604 4.60017 33.7716 5.28129C40.5828 5.9624 40.3557 13.0006 41.718 13.9088C43.0802 14.8169 47.848 15.044 47.621 19.1307C47.3939 23.2174 3.12143 22.7633 0.396966 15.9521Z" fill="#ABE9E7"/>
<path d="M181.404 139.856H132.818L126.688 37.6883L156.203 14.9844L181.404 139.856Z" fill="#2AA3FF"/>
<path d="M216.823 139.856H181.404L156.203 14.9844L183.675 35.4179L216.823 139.856Z" fill="#0088FF"/>
</svg>
