<svg width="332" height="331" viewBox="0 0 332 331" fill="none" xmlns="http://www.w3.org/2000/svg">
<path d="M68.5263 0L66.1904 227.514H234.841L231.57 0H68.5263Z" fill="#0088FF"/>
<path d="M82.0742 222.375L83.9429 13.0811H218.022L219.424 222.375H82.0742Z" fill="#86CBFF"/>
<path d="M86.2792 218.638V16.8185H214.285L215.687 218.638H86.2792Z" fill="#0088FF"/>
<path d="M125.055 128.006L124.587 122.399L129.726 66.8057H177.378L182.05 128.006H125.055Z" fill="black"/>
<path d="M122.718 123.802L123.653 61.668H176.911C178.312 82.0679 178.312 121.934 178.312 121.934C176.443 120.999 140.315 122.868 122.718 123.802Z" fill="#FEFEFE"/>
<circle cx="98.8928" cy="120.531" r="9.3435" fill="black"/>
<circle cx="98.8928" cy="113.991" r="9.3435" fill="#FECF21"/>
<path d="M66.1905 238.921V215.8H43.5225V238.921H66.1905Z" fill="#FAB202"/>
<path d="M230.76 237.108V215.8H252.975V237.108H230.76Z" fill="#FAB202"/>
<path d="M0 215.8H66.644L48.0562 224.867H250.255L230.761 215.8H331.407V330.5H0V215.8Z" fill="#FECF21"/>
</svg>
