<svg width="685" height="164" viewBox="0 0 685 164" fill="none" xmlns="http://www.w3.org/2000/svg">
<path d="M684.407 156.924H652.926V41.8239H618.492V156.924H603.735L596.849 27.5594H593.405M592.914 0.0141602L593.405 27.5594M593.405 27.5594H589.962L582.584 156.924H515.685V57.0722H484.203V156.924H472.397V15.2624H424.191V156.924H418.78V64.9422H383.855V99.8657H367.622V156.924H354.833V41.8239H320.4V156.924H293.837V1.4898H245.63V156.924H231.857V57.0722H225.462M181.683 57.0722H174.305V156.924H112.817V54.6128H78.8754V156.924H69.0374V16.2462H22.3066V156.924H0M181.683 57.0722V48.2183H225.462V57.0722M181.683 57.0722H225.462M132.985 161.351V143.643M132.985 132.822V143.643M132.985 143.643C139.871 143.479 150.988 139.905 140.363 126.919C139.707 122.82 137.313 114.622 132.985 114.622C128.656 114.622 126.59 122.82 126.098 126.919C121.343 132.002 116.063 142.462 132.985 143.643ZM158.072 161.351V143.643M158.072 140.692V143.643M158.072 143.643C156.432 143.479 152.956 141.971 152.169 137.249C151.382 132.526 155.776 131.674 158.072 131.838C159.875 131.838 163.581 132.92 163.975 137.249C164.466 142.659 162.499 143.643 158.072 143.643ZM306.134 163.81V144.627M306.134 139.708V144.627M306.134 144.627C303.511 143.971 298.461 141.282 299.248 135.773C300.035 130.264 304.167 129.215 306.134 129.378C308.43 129.542 312.923 131.248 312.529 136.757C312.037 143.643 310.561 143.151 306.134 144.627ZM538.804 162.334V143.151M538.804 130.854V143.151M538.804 143.151C533.065 142.987 522.867 140.101 527.982 129.87C528.769 127.116 530.934 126.427 531.918 126.427C534.377 118.065 540.673 106.359 546.183 126.427C548.15 128.067 551.889 132.428 551.102 136.757C550.118 142.167 542.248 143.536 538.804 143.151ZM565.367 162.334V144.135M565.367 139.216V144.135M565.367 144.135C562.416 143.643 556.808 141.282 557.988 135.773C559.169 130.264 563.399 129.542 565.367 129.87C567.171 129.87 570.876 131.051 571.27 135.773C571.762 141.675 569.302 143.151 565.367 144.135ZM592.914 75.2717L593.405 150.037M666.699 161.842C666.699 161.536 666.699 152.275 666.699 144.627M666.699 138.724C666.699 140.397 666.699 142.446 666.699 144.627M666.699 144.627C664.075 143.807 659.124 141.085 660.304 136.757C661.78 131.346 664.731 130.854 667.683 130.854C670.634 130.854 673.094 134.789 673.094 137.249C673.094 139.708 674.077 143.151 666.699 144.627ZM39.0313 156.924V145.119H46.9018M54.7722 156.924V145.119H46.9018M46.9018 145.119V156.924M583.075 59.0397V66.9098H604.227V59.0397H583.075Z" stroke="#137FDE" stroke-width="1.55996"/>
</svg>
